<svg width="300" height="100" viewBox="0 0 300 100" fill="none" xmlns="http://www.w3.org/2000/svg">
<g clip-path="url(#clip0_2950_9534)">
<rect width="300" height="100" fill="white"/>
<g clip-path="url(#clip1_2950_9534)">
<rect x="101" y="11" width="122" height="22" rx="11" fill="#FF0000"/>
<g filter="url(#filter0_d_2950_9534)">
<path d="M109.885 28V16.3065H112.711V20.9999H117.319V16.3065H120.14V28H117.319V23.3009H112.711V28H109.885ZM124.442 28H121.404L125.35 16.3065H129.113L133.058 28H130.02L127.274 19.2527H127.183L124.442 28ZM124.037 23.398H130.386V25.5448H124.037V23.398ZM134.317 16.3065H137.817L140.786 23.5464H140.923L143.892 16.3065H147.392V28H144.64V20.8172H144.543L141.734 27.9258H139.975L137.166 20.7772H137.069V28H134.317V16.3065ZM157.274 28.1599C156.635 28.1599 156.022 28.0571 155.436 27.8515C154.85 27.6422 154.328 27.311 153.871 26.8581C153.415 26.4013 153.055 25.8037 152.792 25.0652C152.53 24.3229 152.4 23.4189 152.404 22.3531C152.408 21.39 152.526 20.526 152.758 19.7609C152.99 18.9919 153.321 18.3391 153.751 17.8024C154.185 17.2657 154.703 16.8565 155.305 16.5748C155.91 16.2893 156.585 16.1466 157.331 16.1466C158.15 16.1466 158.871 16.3065 159.495 16.6262C160.124 16.9421 160.626 17.3685 161.003 17.9052C161.38 18.4381 161.602 19.0319 161.671 19.6866H158.89C158.807 19.3174 158.622 19.0376 158.336 18.8473C158.055 18.6532 157.72 18.5561 157.331 18.5561C156.616 18.5561 156.081 18.8663 155.727 19.4868C155.377 20.1072 155.198 20.9371 155.19 21.9762H155.265C155.424 21.626 155.655 21.3253 155.955 21.0741C156.256 20.8229 156.601 20.6306 156.989 20.4974C157.381 20.3604 157.796 20.2919 158.234 20.2919C158.934 20.2919 159.553 20.4536 160.089 20.7772C160.626 21.1007 161.047 21.5442 161.351 22.1076C161.656 22.6671 161.806 23.3085 161.802 24.0317C161.806 24.8463 161.616 25.5657 161.231 26.19C160.847 26.8105 160.314 27.2939 159.633 27.6403C158.955 27.9867 158.169 28.1599 157.274 28.1599ZM157.257 25.9902C157.604 25.9902 157.914 25.9083 158.188 25.7447C158.462 25.581 158.677 25.3583 158.833 25.0766C158.989 24.7949 159.065 24.4771 159.062 24.1231C159.065 23.7653 158.989 23.4474 158.833 23.1696C158.681 22.8917 158.468 22.6709 158.194 22.5072C157.923 22.3436 157.613 22.2617 157.263 22.2617C157.008 22.2617 156.77 22.3093 156.549 22.4045C156.328 22.4996 156.136 22.6328 155.973 22.8041C155.813 22.9716 155.687 23.1696 155.596 23.398C155.504 23.6225 155.457 23.8662 155.453 24.1288C155.457 24.4752 155.537 24.7892 155.693 25.0709C155.849 25.3526 156.062 25.5772 156.332 25.7447C156.603 25.9083 156.911 25.9902 157.257 25.9902ZM166.882 28V16.3065H171.713C172.588 16.3065 173.344 16.4778 173.98 16.8203C174.619 17.1591 175.112 17.633 175.458 18.2421C175.805 18.8473 175.978 19.5515 175.978 20.3547C175.978 21.1616 175.801 21.8677 175.447 22.473C175.097 23.0744 174.596 23.5407 173.945 23.8719C173.294 24.203 172.522 24.3686 171.627 24.3686H168.647V22.1418H171.102C171.528 22.1418 171.884 22.0676 172.17 21.9191C172.459 21.7707 172.678 21.5632 172.826 21.2968C172.975 21.0265 173.049 20.7125 173.049 20.3547C173.049 19.993 172.975 19.6809 172.826 19.4183C172.678 19.1518 172.459 18.9463 172.17 18.8016C171.88 18.657 171.524 18.5846 171.102 18.5846H169.709V28H166.882ZM188.408 22.1532C188.408 23.4398 188.161 24.5304 187.666 25.4249C187.171 26.3194 186.501 26.9989 185.656 27.4633C184.815 27.9277 183.871 28.1599 182.824 28.1599C181.773 28.1599 180.828 27.9258 179.986 27.4576C179.145 26.9894 178.477 26.3099 177.982 25.4192C177.491 24.5247 177.246 23.436 177.246 22.1532C177.246 20.8666 177.491 19.7761 177.982 18.8816C178.477 17.987 179.145 17.3076 179.986 16.8432C180.828 16.3788 181.773 16.1466 182.824 16.1466C183.871 16.1466 184.815 16.3788 185.656 16.8432C186.501 17.3076 187.171 17.987 187.666 18.8816C188.161 19.7761 188.408 20.8666 188.408 22.1532ZM185.519 22.1532C185.519 21.3919 185.411 20.7486 185.194 20.2233C184.98 19.698 184.672 19.3003 184.269 19.03C183.869 18.7597 183.387 18.6246 182.824 18.6246C182.264 18.6246 181.783 18.7597 181.379 19.03C180.976 19.3003 180.666 19.698 180.449 20.2233C180.236 20.7486 180.129 21.3919 180.129 22.1532C180.129 22.9145 180.236 23.5578 180.449 24.0831C180.666 24.6084 180.976 25.0062 181.379 25.2765C181.783 25.5467 182.264 25.6818 182.824 25.6818C183.387 25.6818 183.869 25.5467 184.269 25.2765C184.672 25.0062 184.98 24.6084 185.194 24.0831C185.411 23.5578 185.519 22.9145 185.519 22.1532ZM197.201 28L193.524 23.1467H192.885V28H190.058V16.3065H192.885V20.8457H193.336L196.956 16.3065H200.49L195.985 21.8278L200.724 28H197.201ZM204.582 16.3065V28H201.756V16.3065H204.582ZM206.357 28V16.3065H211.233C212.108 16.3065 212.841 16.4302 213.431 16.6776C214.025 16.925 214.47 17.2714 214.767 17.7168C215.068 18.1621 215.218 18.6779 215.218 19.2641C215.218 19.7095 215.125 20.1072 214.938 20.4574C214.752 20.8038 214.495 21.0912 214.168 21.3196C213.84 21.548 213.462 21.7079 213.031 21.7992V21.9134C213.503 21.9363 213.939 22.0638 214.339 22.296C214.742 22.5282 215.066 22.8517 215.31 23.2666C215.553 23.6777 215.675 24.165 215.675 24.7283C215.675 25.3564 215.515 25.9178 215.195 26.4127C214.876 26.9037 214.413 27.292 213.808 27.5775C213.203 27.8592 212.468 28 211.604 28H206.357ZM209.183 25.7218H210.93C211.543 25.7218 211.994 25.6057 212.283 25.3735C212.577 25.1413 212.723 24.8178 212.723 24.4029C212.723 24.1022 212.653 23.8433 212.512 23.6263C212.371 23.4056 212.171 23.2362 211.912 23.1182C211.653 22.9964 211.343 22.9355 210.982 22.9355H209.183V25.7218ZM209.183 21.1141H210.747C211.056 21.1141 211.33 21.0627 211.57 20.9599C211.81 20.8571 211.996 20.7087 212.129 20.5145C212.266 20.3204 212.335 20.0863 212.335 19.8122C212.335 19.4202 212.196 19.1118 211.918 18.8873C211.64 18.6627 211.265 18.5504 210.793 18.5504H209.183V21.1141Z" fill="white"/>
</g>
</g>
<rect x="101.5" y="11.5" width="121" height="21" rx="10.5" stroke="#A80404"/>
<path d="M123.681 52.6742C122.506 51.513 120.548 49.771 118.394 48.9968C116.241 48.0291 113.695 47.4484 111.345 47.4484C101.751 47.4484 94.898 54.9968 94.898 64.2871C94.898 75.3194 103.905 80.9323 111.541 80.9323C114.283 80.9323 117.024 80.1581 119.178 78.9968C121.527 77.8355 123.094 76.2871 123.877 75.5129V81.1258C119.178 84.4162 114.674 84.9968 111.541 84.9968C99.0099 84.9968 90.0029 75.9 90.0029 64.0936C90.0029 51.9 99.2057 42.9968 111.541 42.9968C114.087 42.9968 118.786 43.3839 123.681 47.0613V52.6742Z" fill="#67579C"/>
<path d="M130.935 59.0562H135.438V61.7659C136.025 60.9917 137.788 58.4756 141.116 58.4756C142.487 58.4756 143.858 59.0562 145.032 59.4433L142.879 63.3143C141.9 62.5401 140.921 62.3466 140.333 62.3466C138.571 62.3466 137.396 63.1207 136.809 63.8949C136.025 64.8627 135.438 66.6046 135.438 70.6691V84.024H130.935V59.0562V59.0562Z" fill="#67579C"/>
<path d="M170.29 77.8304C169.507 79.1853 168.528 80.7336 167.157 81.8949C164.807 84.024 162.066 84.9917 158.737 84.9917C152.668 84.9917 146.206 81.3143 146.206 71.8304C146.206 64.282 150.905 58.4756 158.542 58.4756C163.633 58.4756 166.57 60.9917 168.136 63.1207C169.702 65.4433 170.681 69.1207 170.486 72.6046H150.514C150.514 77.8304 154.234 81.1207 158.542 81.1207C160.5 81.1207 162.262 80.5401 163.828 79.3788C165.003 78.4111 165.982 77.0562 166.57 75.8949L170.29 77.8304ZM165.982 68.9272C165.199 65.0562 162.262 62.3466 158.542 62.3466C154.821 62.3466 151.689 65.0562 151.101 68.9272H165.982Z" fill="#67579C"/>
<path d="M196.726 39.9031H201.23V84.2256H196.726V80.7418C195.356 82.6773 192.419 84.9998 187.915 84.9998C181.454 84.9998 175.384 80.5482 175.384 71.645C175.384 62.9353 181.258 58.4837 187.915 58.4837C192.81 58.4837 195.552 61.1934 196.726 62.7418V39.9031ZM180.083 71.645C180.083 77.0644 183.216 81.1289 188.503 81.1289C193.985 81.1289 196.922 76.6773 196.922 71.645C196.922 65.0644 192.419 62.3547 188.503 62.3547C184.195 62.1611 180.083 65.4515 180.083 71.645Z" fill="#67579C"/>
<path d="M211.204 46.2883C212.966 46.2883 214.337 47.6432 214.337 49.3851C214.337 51.127 212.966 52.4819 211.204 52.4819C209.442 52.4819 208.071 51.127 208.071 49.3851C208.071 47.6432 209.442 46.2883 211.204 46.2883ZM213.358 59.0625V84.4173H208.855V59.0625H213.358Z" fill="#67579C"/>
<path d="M226.283 62.934V84.2243H221.78V62.934H219.234V58.8695H221.976V49.7727H226.479V58.8695H230.983V62.934H226.283Z" fill="#67579C"/>
<path d="M258.198 25C244.101 25 237.247 37.1935 239.205 50.1613C239.401 51.9032 240.968 56.3548 242.338 59.6451C244.688 64.6774 247.625 69.7097 249.975 73.7742L267.401 43.9677H248.604V40.4839H249.975H271.513H272.688V41.8387L271.513 43.7742L252.128 77.258C254.674 81.3225 256.828 83.8387 257.415 83.8387C259.177 83.8387 274.646 65.0645 277.583 49.7742C279.933 36.8064 272.296 25 258.198 25Z" fill="#00D7B8"/>
<g filter="url(#filter1_ddii_2950_9534)">
<path d="M273.431 24.28C273.116 23.9523 273.127 23.4319 273.455 23.1176C276.612 20.0898 275.719 17.0588 275.709 17.0285C275.575 16.5949 275.817 16.1342 276.251 15.9996C276.684 15.865 277.145 16.1076 277.28 16.5412C277.33 16.7044 278.475 20.5809 274.593 24.3042C274.265 24.6186 273.745 24.6077 273.431 24.28Z" fill="#613DD7"/>
<path d="M279.714 29.6444C283.596 25.9209 287.422 27.2272 287.583 27.2843C288.01 27.4368 288.233 27.9075 288.08 28.3352C287.928 28.7623 287.458 28.9855 287.03 28.8329C287 28.8224 284.009 27.8033 280.852 30.8315C280.526 31.1438 280.006 31.1362 279.69 30.8072C279.374 30.4778 279.387 29.9579 279.714 29.6444Z" fill="#613DD7"/>
<path d="M278.006 27.8646C277.679 28.1789 277.158 28.168 276.844 27.8403C276.533 27.5156 276.539 26.9987 276.863 26.6826C277.084 26.2624 276.318 24.9279 277.065 24.2107C277.805 23.5012 279.08 24.2981 279.537 24.1152C279.739 23.6661 278.996 22.3593 279.735 21.6499C280.475 20.9403 281.75 21.7372 282.207 21.5543C282.409 21.1046 281.666 19.7985 282.405 19.0891C283.145 18.3794 284.42 19.1763 284.877 18.9935C285.078 18.5464 284.337 17.2371 285.076 16.5281C285.823 15.8112 287.127 16.6309 287.554 16.4297C287.882 16.1202 288.398 16.1327 288.711 16.4588C289.025 16.7864 289.015 17.3069 288.687 17.6212C288.025 18.2555 287.114 18.1097 286.462 17.974C286.571 18.6304 286.678 19.5476 286.017 20.182C285.355 20.8163 284.443 20.6705 283.792 20.5348C283.9 21.1912 284.008 22.1085 283.347 22.7428C282.685 23.3771 281.773 23.2312 281.122 23.0956C281.23 23.7521 281.338 24.6693 280.677 25.3036C280.015 25.9379 279.103 25.7921 278.452 25.6564C278.56 26.3129 278.668 27.2303 278.006 27.8646Z" fill="#613DD7"/>
<path d="M285.078 23.3602C285.406 23.046 285.926 23.0568 286.241 23.3845C286.555 23.7122 286.544 24.2326 286.216 24.5469C285.889 24.8612 285.368 24.8504 285.054 24.5227C284.74 24.195 284.751 23.6745 285.078 23.3602Z" fill="#613DD7"/>
<path d="M279.135 18.0031C279.144 17.5491 279.52 17.1888 279.974 17.1983C280.428 17.2078 280.788 17.5835 280.779 18.0374C280.769 18.4914 280.394 18.8517 279.94 18.8422C279.486 18.8327 279.125 18.457 279.135 18.0031Z" fill="#613DD7"/>
<path d="M272.365 19.606C272.037 19.9203 271.517 19.9095 271.202 19.5817C270.888 19.254 270.899 18.7336 271.227 18.4193C271.554 18.105 272.075 18.1159 272.389 18.4436C272.703 18.7713 272.693 19.2917 272.365 19.606Z" fill="#613DD7"/>
<path d="M283.746 31.4735C284.074 31.1592 284.594 31.1701 284.909 31.4978C285.223 31.8255 285.212 32.3459 284.884 32.6602C284.557 32.9745 284.036 32.9637 283.722 32.6359C283.408 32.3082 283.419 31.7878 283.746 31.4735Z" fill="#613DD7"/>
</g>
<g opacity="0.4">
<path d="M87.1637 40.055C88.5716 34.5698 85.2544 28.9615 79.7692 27.5535C74.2841 26.1455 68.6757 29.4628 67.2678 34.9479C65.8276 40.5586 69.1914 47.479 72.4389 49.7938L71.7469 50.2018C71.4734 50.3649 71.3228 50.6786 71.3675 50.9935C71.4119 51.31 71.6441 51.5685 71.9532 51.6479L72.974 51.9099C73.8597 57.948 72.3315 58.8933 70.2261 60.1685C68.9335 60.9525 67.4693 61.8394 66.3853 63.8955C66.1805 64.2801 66.3285 64.7585 66.7151 64.9622C66.7709 64.9928 66.8289 65.0143 66.8871 65.0292C67.2345 65.1184 67.6088 64.9632 67.7818 64.6325C68.6633 62.9648 69.8747 62.2301 71.0453 61.5208C73.6824 59.922 75.3879 58.3746 74.6299 52.3351L75.0141 52.4337C75.3233 52.513 75.6513 52.3982 75.8426 52.1423C76.0335 51.8879 76.0525 51.5404 75.8914 51.2657L75.4814 50.5749C79.4424 50.1103 85.7235 45.6656 87.1637 40.055ZM78.5907 32.1449C75.6369 31.3867 72.6173 33.1727 71.8591 36.1265C71.7507 36.5489 71.3199 36.8037 70.8975 36.6953C70.475 36.5869 70.2203 36.156 70.3287 35.7336C71.3033 31.9366 75.1865 29.6398 78.9835 30.6144C79.4059 30.7228 79.6608 31.1537 79.5523 31.5761C79.4439 31.9984 79.0131 32.2533 78.5907 32.1449Z" fill="#E4DDFC"/>
</g>
<g filter="url(#filter2_ddii_2950_9534)">
<path d="M59.1462 60.8227C63.2989 57.9294 71.2811 61.7146 76.0214 56.1363C76.0214 56.1363 76.2033 59.6038 74.1015 62.2064C76.7767 63.6189 79.6772 63.9078 79.6772 63.9078C75.2086 69.5213 68.0543 64.8722 62.5892 70.6404L59.1462 60.8227Z" fill="url(#paint0_linear_2950_9534)"/>
</g>
<g filter="url(#filter3_ddii_2950_9534)">
<path d="M29.41 50.1743C24.3746 49.6631 20.7862 41.5904 13.5555 42.733C13.5555 42.733 15.6771 39.9843 18.9673 39.3795C17.8584 36.5649 15.8465 34.4559 15.8465 34.4559C22.8939 33.1095 25.2914 41.2979 33.1956 40.4835L29.41 50.1743Z" fill="url(#paint1_linear_2950_9534)"/>
</g>
<g filter="url(#filter4_ddii_2950_9534)">
<path d="M48.7979 81.5506C46.1556 81.8743 43.5192 81.7499 40.8887 81.1774C38.2559 80.5868 35.8013 79.3981 33.525 77.6111C31.2463 75.8061 29.2935 73.2742 27.6666 70.0154C26.0373 66.7387 24.904 62.5669 24.2665 57.5001C23.6552 52.7769 23.613 48.5005 24.14 44.6708C24.6669 40.841 25.7081 37.5291 27.2638 34.7349C28.8171 31.9227 30.8356 29.6711 33.3192 27.9802C35.8208 26.287 38.7238 25.2265 42.0282 24.7989C45.4943 24.3503 48.6536 24.6353 51.5061 25.6538C54.3766 26.6701 56.7914 28.2566 58.7504 30.4133C60.7071 32.5521 62.0748 35.0776 62.8534 37.9897L53.0208 39.2622C52.2437 37.2081 50.9926 35.6536 49.2675 34.5987C47.558 33.5235 45.5179 33.1393 43.1474 33.4461C39.3221 33.9412 36.5918 35.9836 34.9565 39.5733C33.3392 43.1606 32.8969 47.8559 33.6297 53.6589L34.0068 53.6101C34.6823 51.9159 35.6472 50.4124 36.9016 49.0997C38.1559 47.7869 39.6236 46.7114 41.3045 45.873C43.0011 45.0143 44.8372 44.4572 46.8127 44.2015C50.0453 43.7831 53.0456 44.18 55.8136 45.3921C58.5996 46.6019 60.9223 48.4651 62.7819 50.9816C64.6391 53.4803 65.7841 56.4727 66.2171 59.9591C66.7045 63.5845 66.3003 66.951 65.0043 70.0585C63.706 73.1481 61.6732 75.7119 58.9058 77.75C56.1384 79.788 52.7691 81.0549 48.7979 81.5506ZM47.6981 73.4761C49.6556 73.2227 51.345 72.5202 52.7663 71.3685C54.1876 70.2168 55.2426 68.7746 55.9314 67.0421C56.6201 65.3096 56.8254 63.4388 56.5471 61.4297C56.3094 59.4519 55.6471 57.7208 54.5603 56.2363C53.4914 54.7495 52.1333 53.638 50.4859 52.9017C48.8385 52.1654 47.0361 51.9239 45.0785 52.1772C43.6238 52.3655 42.304 52.8193 41.1189 53.5388C39.9338 54.2582 38.9383 55.1722 38.1322 56.2808C37.3239 57.3715 36.734 58.5982 36.3626 59.9609C36.0068 61.3034 35.914 62.7032 36.0843 64.1602C36.351 66.0795 37.0289 67.7903 38.1181 69.2927C39.2072 70.7952 40.5868 71.9313 42.2568 72.7012C43.9268 73.4711 45.7405 73.7294 47.6981 73.4761Z" fill="#613DD7"/>
</g>
<g filter="url(#filter5_ddii_2950_9534)">
<path d="M40.7545 17.3467C42.003 17.1851 42.8835 16.043 42.7219 14.7944C42.667 14.3707 42.4965 13.9849 42.2492 13.6722L39.8771 10.5671L38.3735 14.1738C38.214 14.5391 38.1473 14.9556 38.2021 15.3793C38.3637 16.6279 39.5059 17.5083 40.7545 17.3467Z" fill="#33FFE2"/>
<path d="M47.9731 19.8591L42.3234 20.5903L42.0309 18.3303L39.771 18.6228L40.0635 20.8827L34.4138 21.6139C32.5437 21.8559 31.2206 23.5724 31.4626 25.4425L31.6878 27.1826C31.8458 28.4029 32.9688 29.2686 34.1891 29.1106C34.7824 29.0338 35.306 28.7306 35.67 28.2583L37.7759 25.5329L40.4998 27.6275C41.4442 28.3555 42.9019 28.1668 43.6298 27.2224L45.7363 24.5027L48.4603 26.5973C48.9324 26.9612 49.5161 27.1212 50.1094 27.0445C51.3297 26.8865 52.1953 25.7635 52.0374 24.5432L51.8129 22.8087C51.5596 20.9401 49.8432 19.617 47.9731 19.8591Z" fill="#33FFE2"/>
</g>
<g filter="url(#filter6_ddii_2950_9534)">
<path d="M18.9717 53.7587C18.8587 53.3856 18.4646 53.1748 18.0915 53.2878C14.497 54.3766 12.6042 52.4327 12.5855 52.4129C12.3175 52.1298 11.8707 52.1174 11.5875 52.3854C11.3043 52.6532 11.292 53.1001 11.5599 53.3833C11.6608 53.4899 14.0804 55.9779 18.5007 54.639C18.8739 54.526 19.0848 54.1319 18.9717 53.7587Z" fill="#613DD7"/>
<path d="M20.3424 60.7194C15.9221 62.0579 15.29 65.4708 15.265 65.6154C15.1992 65.9997 15.4578 66.3644 15.8421 66.4302C16.226 66.4957 16.5908 66.2378 16.6566 65.8535C16.6613 65.8267 17.1572 63.1591 20.752 62.0706C21.1228 61.9583 21.3359 61.5658 21.2229 61.1905C21.1092 60.8154 20.7145 60.6067 20.3424 60.7194Z" fill="#613DD7"/>
<path d="M19.7281 58.6927C20.1012 58.5797 20.3121 58.1856 20.199 57.8125C20.0871 57.4427 19.6974 57.2302 19.3245 57.3398C18.9172 57.328 18.2407 56.1931 17.3894 56.4508C16.5471 56.7059 16.6069 57.9956 16.278 58.2603C15.8568 58.2227 15.1915 57.1166 14.3492 57.3716C13.5068 57.6267 13.5667 58.9164 13.2377 59.1812C12.816 59.1434 12.1513 58.0374 11.309 58.2925C10.4666 58.5476 10.5265 59.8373 10.1975 60.1021C9.77822 60.0646 9.11033 58.9587 8.2687 59.2134C7.41761 59.4713 7.48249 60.792 7.15229 61.0268C6.78267 61.142 6.57458 61.5341 6.687 61.9053C6.79998 62.2784 7.1941 62.4893 7.56724 62.3763C8.32031 62.1482 8.5949 61.4042 8.76741 60.8596C9.21313 61.217 9.85433 61.6835 10.6074 61.4554C11.3605 61.2273 11.635 60.4834 11.8076 59.9388C12.2533 60.2961 12.8945 60.7627 13.6476 60.5345C14.4007 60.3064 14.6752 59.5624 14.8477 59.0178C15.2935 59.3752 15.9347 59.8418 16.6877 59.6136C17.4408 59.3855 17.7154 58.6416 17.8879 58.097C18.3337 58.4543 18.9751 58.9208 19.7281 58.6927Z" fill="#613DD7"/>
<path d="M13.3819 62.0902C13.0088 62.2032 12.798 62.5973 12.911 62.9704C13.024 63.3435 13.4181 63.5544 13.7912 63.4413C14.1643 63.3283 14.3752 62.9342 14.2622 62.5611C14.1491 62.188 13.7551 61.9771 13.3819 62.0902Z" fill="#613DD7"/>
<path d="M11.8727 55.3875C11.529 55.2035 11.1012 55.3331 10.9173 55.6769C10.7333 56.0206 10.8629 56.4484 11.2067 56.6323C11.5504 56.8162 11.9782 56.6867 12.1621 56.3429C12.346 55.9992 12.2165 55.5714 11.8727 55.3875Z" fill="#613DD7"/>
<path d="M15.9211 50.9946C16.2942 50.8815 16.5051 50.4875 16.392 50.1143C16.279 49.7412 15.8849 49.5304 15.5118 49.6434C15.1387 49.7564 14.9278 50.1505 15.0409 50.5236C15.1538 50.8967 15.548 51.1076 15.9211 50.9946Z" fill="#613DD7"/>
<path d="M20.0147 64.5069C19.6416 64.6199 19.4308 65.014 19.5438 65.3871C19.6568 65.7603 20.0509 65.9711 20.424 65.8581C20.7971 65.7451 21.008 65.351 20.895 64.9779C20.782 64.6047 20.3878 64.3939 20.0147 64.5069Z" fill="#613DD7"/>
</g>
<g filter="url(#filter7_ddii_2950_9534)">
<path d="M61.4308 79.2981C61.1848 79.4619 61.1181 79.7942 61.282 80.0402C62.8604 82.4104 61.8645 84.2104 61.8542 84.2284C61.7075 84.4849 61.7965 84.8119 62.053 84.9587C62.3095 85.1055 62.6366 85.0165 62.7834 84.7599C62.8386 84.6634 64.114 82.3617 62.173 79.4469C62.0092 79.2009 61.6768 79.1342 61.4308 79.2981Z" fill="#613DD7"/>
<path d="M66.1816 76.7769C68.1223 79.6917 70.738 79.4022 70.8485 79.3886C71.1418 79.3521 71.3498 79.0845 71.3133 78.7911C71.2767 78.4981 71.0095 78.2899 70.7161 78.3264C70.6956 78.3288 68.6507 78.5538 67.0725 76.1833C66.9097 75.9388 66.5781 75.8702 66.3305 76.0345C66.0831 76.1992 66.0182 76.5315 66.1816 76.7769Z" fill="#613DD7"/>
<path d="M64.8451 77.6667C64.6812 77.4207 64.349 77.354 64.1029 77.5179C63.8591 77.6802 63.7903 78.0096 63.9516 78.2563C64.0323 78.5545 63.3569 79.2943 63.7306 79.8557C64.1005 80.4111 65.0234 80.0849 65.2877 80.2656C65.3528 80.5796 64.6957 81.305 65.0656 81.8604C65.4354 82.4159 66.3583 82.0897 66.6227 82.2704C66.6877 82.5848 66.0307 83.3098 66.4005 83.8651C66.7704 84.4206 67.6933 84.0944 67.9576 84.2751C68.0224 84.5877 67.3661 85.3149 67.7355 85.8699C68.1093 86.4311 69.0537 86.0945 69.2965 86.2826C69.4612 86.5256 69.7913 86.5907 70.0362 86.4277C70.2822 86.2639 70.3488 85.9316 70.185 85.6856C69.8543 85.189 69.2541 85.1528 68.821 85.147C68.9827 84.7452 69.1807 84.1775 68.85 83.6809C68.5193 83.1843 67.9192 83.1481 67.4861 83.1423C67.6477 82.7405 67.8458 82.1727 67.515 81.6762C67.1844 81.1796 66.5842 81.1435 66.1511 81.1377C66.3127 80.7357 66.5108 80.1681 66.1801 79.6715C65.8494 79.1749 65.2492 79.1388 64.8161 79.1329C64.9777 78.731 65.1757 78.1633 64.8451 77.6667Z" fill="#613DD7"/>
<path d="M68.7028 81.5285C68.8667 81.7745 69.1989 81.8411 69.445 81.6773C69.691 81.5134 69.7576 81.1812 69.5938 80.9351C69.4299 80.6891 69.0977 80.6225 68.8516 80.7863C68.6056 80.9502 68.539 81.2824 68.7028 81.5285Z" fill="#613DD7"/>
<path d="M64.1684 84.0929C64.1103 84.3827 64.2982 84.6648 64.588 84.7229C64.8778 84.781 65.1599 84.5932 65.218 84.3033C65.2761 84.0135 65.0883 83.7314 64.7985 83.6733C64.5086 83.6152 64.2266 83.803 64.1684 84.0929Z" fill="#613DD7"/>
<path d="M60.0928 82.1173C59.929 81.8712 59.5967 81.8046 59.3507 81.9684C59.1046 82.1323 59.038 82.4645 59.2018 82.7106C59.3657 82.9566 59.6979 83.0233 59.944 82.8594C60.19 82.6956 60.2567 82.3633 60.0928 82.1173Z" fill="#613DD7"/>
<path d="M69.0026 76.184C69.1665 76.43 69.4987 76.4966 69.7448 76.3328C69.9908 76.169 70.0574 75.8367 69.8936 75.5907C69.7298 75.3446 69.3975 75.278 69.1514 75.4418C68.9054 75.6057 68.8388 75.938 69.0026 76.184Z" fill="#613DD7"/>
</g>
<g filter="url(#filter8_ddii_2950_9534)">
<path d="M61.414 28.8696C61.584 29.1114 61.9178 29.1697 62.1597 28.9998C64.4896 27.3626 66.314 28.3131 66.3322 28.3229C66.5923 28.4632 66.917 28.366 67.0573 28.1059C67.1977 27.8458 67.1005 27.521 66.8403 27.3807C66.7424 27.3279 64.4095 26.1106 61.5443 28.1239C61.3024 28.2939 61.244 28.6277 61.414 28.8696Z" fill="#613DD7"/>
<path d="M58.7752 24.1829C61.6405 22.1698 61.2856 19.5622 61.2693 19.4521C61.2255 19.1598 60.9527 18.9586 60.6603 19.0024C60.3683 19.0463 60.1668 19.3187 60.2107 19.611C60.2136 19.6315 60.4897 21.6701 58.1595 23.3072C57.9192 23.476 57.8588 23.8093 58.0293 24.0527C58.2002 24.2958 58.534 24.3524 58.7752 24.1829Z" fill="#613DD7"/>
<path d="M59.6978 25.4965C59.4559 25.6664 59.3976 26.0003 59.5676 26.2421C59.736 26.4818 60.067 26.5423 60.3096 26.3749C60.6056 26.2868 61.3622 26.9434 61.914 26.5558C62.46 26.1721 62.1108 25.2577 62.2848 24.9889C62.5971 24.916 63.3387 25.5547 63.8847 25.1711C64.4307 24.7874 64.0815 23.873 64.2555 23.6042C64.5682 23.5313 65.3094 24.17 65.8553 23.7863C66.4014 23.4027 66.0522 22.4882 66.2262 22.2195C66.537 22.1469 67.2805 22.7848 67.8261 22.4016C68.3777 22.0139 68.0175 21.0782 68.1996 20.8308C68.4384 20.6601 68.4952 20.3284 68.3261 20.0877C68.1562 19.8459 67.8223 19.7876 67.5805 19.9575C67.0923 20.3005 67.0712 20.9014 67.0762 21.3345C66.6704 21.183 66.098 20.9992 65.6099 21.3422C65.1217 21.6852 65.1006 22.2861 65.1056 22.7192C64.6998 22.5677 64.1273 22.3839 63.6392 22.727C63.151 23.07 63.1299 23.6709 63.135 24.104C62.7291 23.9524 62.1567 23.7687 61.6685 24.1117C61.1804 24.4547 61.1593 25.0556 61.1643 25.4887C60.7585 25.3372 60.1859 25.1535 59.6978 25.4965Z" fill="#613DD7"/>
<path d="M63.4626 21.5438C63.7045 21.3739 63.7628 21.04 63.5928 20.7982C63.4229 20.5563 63.0891 20.498 62.8472 20.668C62.6053 20.8379 62.547 21.1717 62.717 21.4136C62.8869 21.6555 63.2208 21.7138 63.4626 21.5438Z" fill="#613DD7"/>
<path d="M66.139 26.012C66.4302 26.0629 66.7075 25.8681 66.7583 25.5769C66.8092 25.2857 66.6143 25.0084 66.3231 24.9575C66.032 24.9067 65.7547 25.1015 65.7038 25.3927C65.653 25.6839 65.8478 25.9612 66.139 26.012Z" fill="#613DD7"/>
<path d="M64.2671 30.1362C64.0252 30.3062 63.967 30.64 64.1369 30.8819C64.3069 31.1237 64.6407 31.182 64.8825 31.0121C65.1244 30.8421 65.1827 30.5083 65.0127 30.2664C64.8428 30.0246 64.509 29.9663 64.2671 30.1362Z" fill="#613DD7"/>
<path d="M58.112 21.3778C58.3539 21.2078 58.4122 20.874 58.2422 20.6322C58.0723 20.3903 57.7385 20.332 57.4966 20.502C57.2547 20.6719 57.1964 21.0057 57.3664 21.2476C57.5364 21.4895 57.8702 21.5478 58.112 21.3778Z" fill="#613DD7"/>
</g>
<g opacity="0.4">
<path d="M6.31359 11.1859C6.9556 6.67241 11.1503 3.52246 15.6638 4.16448C20.1773 4.8065 23.3272 9.00116 22.6852 13.5147C22.0285 18.1315 17.3952 22.243 14.2667 22.9647L14.6558 23.4813C14.809 23.6868 14.8245 23.9665 14.6942 24.187C14.5637 24.4087 14.3114 24.5295 14.057 24.4933L13.217 24.3739C10.6987 28.5922 11.5442 29.766 12.7175 31.363C13.4375 32.3442 14.2534 33.4548 14.4266 35.318C14.4604 35.6672 14.203 35.9775 13.8527 36.0099C13.8018 36.0155 13.752 36.0136 13.7041 36.0067C13.4182 35.9661 13.1877 35.7354 13.1609 35.4361C13.0188 33.9242 12.344 33.0046 11.6917 32.1165C10.2226 30.1152 9.43057 28.4389 11.8544 24.1801L11.5383 24.1351C11.2839 24.0989 11.0753 23.9125 11.0118 23.6632C10.9481 23.4152 11.041 23.1509 11.2454 22.9962L11.7631 22.6086C8.95995 21.0432 5.65687 15.8027 6.31359 11.1859ZM15.1264 7.94255C17.5569 8.28828 19.2529 10.5467 18.9072 12.9773C18.8577 13.3248 19.0997 13.6471 19.4473 13.6965C19.7949 13.746 20.1171 13.504 20.1665 13.1564C20.611 10.0319 18.43 7.12763 15.3055 6.68319C14.958 6.63376 14.6357 6.87575 14.5863 7.22331C14.5368 7.57086 14.7788 7.89311 15.1264 7.94255Z" fill="#E4DDFC"/>
</g>
<g opacity="0.4">
<path d="M8.94171 92.3414C7.31992 86.0233 11.141 79.5631 17.4592 77.9413C23.7774 76.3195 30.2375 80.1406 31.8593 86.4588C33.5182 92.9216 29.6435 100.893 25.9028 103.559L26.6999 104.029C27.0149 104.217 27.1885 104.578 27.1369 104.941C27.0858 105.306 26.8184 105.604 26.4622 105.695L25.2864 105.997C24.2662 112.952 26.0265 114.041 28.4517 115.51C29.9406 116.413 31.6271 117.434 32.8758 119.803C33.1117 120.246 32.9413 120.797 32.4959 121.031C32.4317 121.067 32.3648 121.091 32.2978 121.109C31.8976 121.211 31.4665 121.033 31.2673 120.652C30.2519 118.731 28.8565 117.884 27.508 117.067C24.4704 115.226 22.5059 113.443 23.379 106.487L22.9365 106.6C22.5804 106.692 22.2025 106.559 21.9822 106.265C21.7623 105.972 21.7404 105.571 21.926 105.255L22.3982 104.459C17.8356 103.924 10.6006 98.8042 8.94171 92.3414ZM18.8167 83.23C22.2191 82.3567 25.6973 84.414 26.5706 87.8163C26.6955 88.3028 27.1918 88.5964 27.6783 88.4715C28.1649 88.3466 28.4584 87.8503 28.3335 87.3638C27.2108 82.9901 22.7379 80.3444 18.3642 81.4671C17.8777 81.592 17.5841 82.0883 17.709 82.5748C17.8339 83.0613 18.3302 83.3549 18.8167 83.23Z" fill="#E4DDFC"/>
</g>
</g>
<defs>
<filter id="filter0_d_2950_9534" x="3.29403" y="-83.5452" width="318.972" height="225.195" filterUnits="userSpaceOnUse" color-interpolation-filters="sRGB">
<feFlood flood-opacity="0" result="BackgroundImageFix"/>
<feColorMatrix in="SourceAlpha" type="matrix" values="0 0 0 0 0 0 0 0 0 0 0 0 0 0 0 0 0 0 127 0" result="hardAlpha"/>
<feOffset dy="6.89908"/>
<feGaussianBlur stdDeviation="53.2954"/>
<feComposite in2="hardAlpha" operator="out"/>
<feColorMatrix type="matrix" values="0 0 0 0 0.361884 0 0 0 0 0.361884 0 0 0 0 0.361884 0 0 0 0.25 0"/>
<feBlend mode="normal" in2="BackgroundImageFix" result="effect1_dropShadow_2950_9534"/>
<feBlend mode="normal" in="SourceGraphic" in2="effect1_dropShadow_2950_9534" result="shape"/>
</filter>
<filter id="filter1_ddii_2950_9534" x="258.524" y="13.4724" width="37.8865" height="36.8462" filterUnits="userSpaceOnUse" color-interpolation-filters="sRGB">
<feFlood flood-opacity="0" result="BackgroundImageFix"/>
<feColorMatrix in="SourceAlpha" type="matrix" values="0 0 0 0 0 0 0 0 0 0 0 0 0 0 0 0 0 0 127 0" result="hardAlpha"/>
<feOffset dy="2.48996"/>
<feGaussianBlur stdDeviation="2.48996"/>
<feComposite in2="hardAlpha" operator="out"/>
<feColorMatrix type="matrix" values="0 0 0 0 0 0 0 0 0 0.843137 0 0 0 0 0.721569 0 0 0 0.03 0"/>
<feBlend mode="normal" in2="BackgroundImageFix" result="effect1_dropShadow_2950_9534"/>
<feColorMatrix in="SourceAlpha" type="matrix" values="0 0 0 0 0 0 0 0 0 0 0 0 0 0 0 0 0 0 127 0" result="hardAlpha"/>
<feOffset dx="-2.48996" dy="7.46988"/>
<feGaussianBlur stdDeviation="4.97992"/>
<feComposite in2="hardAlpha" operator="out"/>
<feColorMatrix type="matrix" values="0 0 0 0 0 0 0 0 0 0 0 0 0 0 0 0 0 0 0.25 0"/>
<feBlend mode="normal" in2="effect1_dropShadow_2950_9534" result="effect2_dropShadow_2950_9534"/>
<feBlend mode="normal" in="SourceGraphic" in2="effect2_dropShadow_2950_9534" result="shape"/>
<feColorMatrix in="SourceAlpha" type="matrix" values="0 0 0 0 0 0 0 0 0 0 0 0 0 0 0 0 0 0 127 0" result="hardAlpha"/>
<feOffset dy="-2.48996"/>
<feGaussianBlur stdDeviation="2.48996"/>
<feComposite in2="hardAlpha" operator="arithmetic" k2="-1" k3="1"/>
<feColorMatrix type="matrix" values="0 0 0 0 0 0 0 0 0 0.843137 0 0 0 0 0.721569 0 0 0 0.22 0"/>
<feBlend mode="normal" in2="shape" result="effect3_innerShadow_2950_9534"/>
<feColorMatrix in="SourceAlpha" type="matrix" values="0 0 0 0 0 0 0 0 0 0 0 0 0 0 0 0 0 0 127 0" result="hardAlpha"/>
<feOffset dy="2.48996"/>
<feGaussianBlur stdDeviation="1.24498"/>
<feComposite in2="hardAlpha" operator="arithmetic" k2="-1" k3="1"/>
<feColorMatrix type="matrix" values="0 0 0 0 0.622163 0 0 0 0 0.516369 0 0 0 0 1 0 0 0 1 0"/>
<feBlend mode="normal" in2="effect3_innerShadow_2950_9534" result="effect4_innerShadow_2950_9534"/>
</filter>
<filter id="filter2_ddii_2950_9534" x="42.6612" y="52.8392" width="46.9067" height="40.8805" filterUnits="userSpaceOnUse" color-interpolation-filters="sRGB">
<feFlood flood-opacity="0" result="BackgroundImageFix"/>
<feColorMatrix in="SourceAlpha" type="matrix" values="0 0 0 0 0 0 0 0 0 0 0 0 0 0 0 0 0 0 127 0" result="hardAlpha"/>
<feOffset dy="3.29705"/>
<feGaussianBlur stdDeviation="3.29705"/>
<feComposite in2="hardAlpha" operator="out"/>
<feColorMatrix type="matrix" values="0 0 0 0 0 0 0 0 0 0.843137 0 0 0 0 0.721569 0 0 0 0.03 0"/>
<feBlend mode="normal" in2="BackgroundImageFix" result="effect1_dropShadow_2950_9534"/>
<feColorMatrix in="SourceAlpha" type="matrix" values="0 0 0 0 0 0 0 0 0 0 0 0 0 0 0 0 0 0 127 0" result="hardAlpha"/>
<feOffset dx="-3.29705" dy="9.89115"/>
<feGaussianBlur stdDeviation="6.5941"/>
<feComposite in2="hardAlpha" operator="out"/>
<feColorMatrix type="matrix" values="0 0 0 0 0.622163 0 0 0 0 0.516369 0 0 0 0 1 0 0 0 0.22 0"/>
<feBlend mode="normal" in2="effect1_dropShadow_2950_9534" result="effect2_dropShadow_2950_9534"/>
<feBlend mode="normal" in="SourceGraphic" in2="effect2_dropShadow_2950_9534" result="shape"/>
<feColorMatrix in="SourceAlpha" type="matrix" values="0 0 0 0 0 0 0 0 0 0 0 0 0 0 0 0 0 0 127 0" result="hardAlpha"/>
<feOffset dy="-3.29705"/>
<feGaussianBlur stdDeviation="3.29705"/>
<feComposite in2="hardAlpha" operator="arithmetic" k2="-1" k3="1"/>
<feColorMatrix type="matrix" values="0 0 0 0 0 0 0 0 0 0.843137 0 0 0 0 0.721569 0 0 0 0.22 0"/>
<feBlend mode="normal" in2="shape" result="effect3_innerShadow_2950_9534"/>
<feColorMatrix in="SourceAlpha" type="matrix" values="0 0 0 0 0 0 0 0 0 0 0 0 0 0 0 0 0 0 127 0" result="hardAlpha"/>
<feOffset dy="3.29705"/>
<feGaussianBlur stdDeviation="1.64852"/>
<feComposite in2="hardAlpha" operator="arithmetic" k2="-1" k3="1"/>
<feColorMatrix type="matrix" values="0 0 0 0 0.622163 0 0 0 0 0.516369 0 0 0 0 1 0 0 0 1 0"/>
<feBlend mode="normal" in2="effect3_innerShadow_2950_9534" result="effect4_innerShadow_2950_9534"/>
</filter>
<filter id="filter3_ddii_2950_9534" x="-2.92958" y="31.0089" width="46.016" height="42.2448" filterUnits="userSpaceOnUse" color-interpolation-filters="sRGB">
<feFlood flood-opacity="0" result="BackgroundImageFix"/>
<feColorMatrix in="SourceAlpha" type="matrix" values="0 0 0 0 0 0 0 0 0 0 0 0 0 0 0 0 0 0 127 0" result="hardAlpha"/>
<feOffset dy="3.29705"/>
<feGaussianBlur stdDeviation="3.29705"/>
<feComposite in2="hardAlpha" operator="out"/>
<feColorMatrix type="matrix" values="0 0 0 0 0 0 0 0 0 0.843137 0 0 0 0 0.721569 0 0 0 0.03 0"/>
<feBlend mode="normal" in2="BackgroundImageFix" result="effect1_dropShadow_2950_9534"/>
<feColorMatrix in="SourceAlpha" type="matrix" values="0 0 0 0 0 0 0 0 0 0 0 0 0 0 0 0 0 0 127 0" result="hardAlpha"/>
<feOffset dx="-3.29705" dy="9.89115"/>
<feGaussianBlur stdDeviation="6.5941"/>
<feComposite in2="hardAlpha" operator="out"/>
<feColorMatrix type="matrix" values="0 0 0 0 0.622163 0 0 0 0 0.516369 0 0 0 0 1 0 0 0 0.22 0"/>
<feBlend mode="normal" in2="effect1_dropShadow_2950_9534" result="effect2_dropShadow_2950_9534"/>
<feBlend mode="normal" in="SourceGraphic" in2="effect2_dropShadow_2950_9534" result="shape"/>
<feColorMatrix in="SourceAlpha" type="matrix" values="0 0 0 0 0 0 0 0 0 0 0 0 0 0 0 0 0 0 127 0" result="hardAlpha"/>
<feOffset dy="-3.29705"/>
<feGaussianBlur stdDeviation="3.29705"/>
<feComposite in2="hardAlpha" operator="arithmetic" k2="-1" k3="1"/>
<feColorMatrix type="matrix" values="0 0 0 0 0 0 0 0 0 0.843137 0 0 0 0 0.721569 0 0 0 0.22 0"/>
<feBlend mode="normal" in2="shape" result="effect3_innerShadow_2950_9534"/>
<feColorMatrix in="SourceAlpha" type="matrix" values="0 0 0 0 0 0 0 0 0 0 0 0 0 0 0 0 0 0 127 0" result="hardAlpha"/>
<feOffset dy="3.29705"/>
<feGaussianBlur stdDeviation="1.64852"/>
<feComposite in2="hardAlpha" operator="arithmetic" k2="-1" k3="1"/>
<feColorMatrix type="matrix" values="0 0 0 0 0.622163 0 0 0 0 0.516369 0 0 0 0 1 0 0 0 1 0"/>
<feBlend mode="normal" in2="effect3_innerShadow_2950_9534" result="effect4_innerShadow_2950_9534"/>
</filter>
<filter id="filter4_ddii_2950_9534" x="3.88488" y="18.9986" width="74.7153" height="88.3881" filterUnits="userSpaceOnUse" color-interpolation-filters="sRGB">
<feFlood flood-opacity="0" result="BackgroundImageFix"/>
<feColorMatrix in="SourceAlpha" type="matrix" values="0 0 0 0 0 0 0 0 0 0 0 0 0 0 0 0 0 0 127 0" result="hardAlpha"/>
<feOffset dy="3.29705"/>
<feGaussianBlur stdDeviation="3.29705"/>
<feComposite in2="hardAlpha" operator="out"/>
<feColorMatrix type="matrix" values="0 0 0 0 0 0 0 0 0 0.843137 0 0 0 0 0.721569 0 0 0 0.03 0"/>
<feBlend mode="normal" in2="BackgroundImageFix" result="effect1_dropShadow_2950_9534"/>
<feColorMatrix in="SourceAlpha" type="matrix" values="0 0 0 0 0 0 0 0 0 0 0 0 0 0 0 0 0 0 127 0" result="hardAlpha"/>
<feOffset dx="-3.29705" dy="9.89115"/>
<feGaussianBlur stdDeviation="6.5941"/>
<feComposite in2="hardAlpha" operator="out"/>
<feColorMatrix type="matrix" values="0 0 0 0 0.622163 0 0 0 0 0.516369 0 0 0 0 1 0 0 0 0.22 0"/>
<feBlend mode="normal" in2="effect1_dropShadow_2950_9534" result="effect2_dropShadow_2950_9534"/>
<feBlend mode="normal" in="SourceGraphic" in2="effect2_dropShadow_2950_9534" result="shape"/>
<feColorMatrix in="SourceAlpha" type="matrix" values="0 0 0 0 0 0 0 0 0 0 0 0 0 0 0 0 0 0 127 0" result="hardAlpha"/>
<feOffset dy="-3.29705"/>
<feGaussianBlur stdDeviation="3.29705"/>
<feComposite in2="hardAlpha" operator="arithmetic" k2="-1" k3="1"/>
<feColorMatrix type="matrix" values="0 0 0 0 0 0 0 0 0 0.843137 0 0 0 0 0.721569 0 0 0 0.22 0"/>
<feBlend mode="normal" in2="shape" result="effect3_innerShadow_2950_9534"/>
<feColorMatrix in="SourceAlpha" type="matrix" values="0 0 0 0 0 0 0 0 0 0 0 0 0 0 0 0 0 0 127 0" result="hardAlpha"/>
<feOffset dy="3.29705"/>
<feGaussianBlur stdDeviation="1.64852"/>
<feComposite in2="hardAlpha" operator="arithmetic" k2="-1" k3="1"/>
<feColorMatrix type="matrix" values="0 0 0 0 0.622163 0 0 0 0 0.516369 0 0 0 0 1 0 0 0 1 0"/>
<feBlend mode="normal" in2="effect3_innerShadow_2950_9534" result="effect4_innerShadow_2950_9534"/>
</filter>
<filter id="filter5_ddii_2950_9534" x="18.0904" y="7.89849" width="41.9712" height="39.9112" filterUnits="userSpaceOnUse" color-interpolation-filters="sRGB">
<feFlood flood-opacity="0" result="BackgroundImageFix"/>
<feColorMatrix in="SourceAlpha" type="matrix" values="0 0 0 0 0 0 0 0 0 0 0 0 0 0 0 0 0 0 127 0" result="hardAlpha"/>
<feOffset dy="2.66865"/>
<feGaussianBlur stdDeviation="2.66865"/>
<feComposite in2="hardAlpha" operator="out"/>
<feColorMatrix type="matrix" values="0 0 0 0 0 0 0 0 0 0.843137 0 0 0 0 0.721569 0 0 0 0.03 0"/>
<feBlend mode="normal" in2="BackgroundImageFix" result="effect1_dropShadow_2950_9534"/>
<feColorMatrix in="SourceAlpha" type="matrix" values="0 0 0 0 0 0 0 0 0 0 0 0 0 0 0 0 0 0 127 0" result="hardAlpha"/>
<feOffset dx="-2.66865" dy="8.00595"/>
<feGaussianBlur stdDeviation="5.33729"/>
<feComposite in2="hardAlpha" operator="out"/>
<feColorMatrix type="matrix" values="0 0 0 0 0 0 0 0 0 0 0 0 0 0 0 0 0 0 0.25 0"/>
<feBlend mode="normal" in2="effect1_dropShadow_2950_9534" result="effect2_dropShadow_2950_9534"/>
<feBlend mode="normal" in="SourceGraphic" in2="effect2_dropShadow_2950_9534" result="shape"/>
<feColorMatrix in="SourceAlpha" type="matrix" values="0 0 0 0 0 0 0 0 0 0 0 0 0 0 0 0 0 0 127 0" result="hardAlpha"/>
<feOffset dy="-2.66865"/>
<feGaussianBlur stdDeviation="2.66865"/>
<feComposite in2="hardAlpha" operator="arithmetic" k2="-1" k3="1"/>
<feColorMatrix type="matrix" values="0 0 0 0 0 0 0 0 0 0.843137 0 0 0 0 0.721569 0 0 0 0.22 0"/>
<feBlend mode="normal" in2="shape" result="effect3_innerShadow_2950_9534"/>
<feColorMatrix in="SourceAlpha" type="matrix" values="0 0 0 0 0 0 0 0 0 0 0 0 0 0 0 0 0 0 127 0" result="hardAlpha"/>
<feOffset dy="2.66865"/>
<feGaussianBlur stdDeviation="1.33432"/>
<feComposite in2="hardAlpha" operator="arithmetic" k2="-1" k3="1"/>
<feColorMatrix type="matrix" values="0 0 0 0 0.622163 0 0 0 0 0.516369 0 0 0 0 1 0 0 0 1 0"/>
<feBlend mode="normal" in2="effect3_innerShadow_2950_9534" result="effect4_innerShadow_2950_9534"/>
</filter>
<filter id="filter6_ddii_2950_9534" x="-4.03351" y="47.4748" width="31.7003" height="33.9313" filterUnits="userSpaceOnUse" color-interpolation-filters="sRGB">
<feFlood flood-opacity="0" result="BackgroundImageFix"/>
<feColorMatrix in="SourceAlpha" type="matrix" values="0 0 0 0 0 0 0 0 0 0 0 0 0 0 0 0 0 0 127 0" result="hardAlpha"/>
<feOffset dy="2.13795"/>
<feGaussianBlur stdDeviation="2.13795"/>
<feComposite in2="hardAlpha" operator="out"/>
<feColorMatrix type="matrix" values="0 0 0 0 0 0 0 0 0 0.843137 0 0 0 0 0.721569 0 0 0 0.03 0"/>
<feBlend mode="normal" in2="BackgroundImageFix" result="effect1_dropShadow_2950_9534"/>
<feColorMatrix in="SourceAlpha" type="matrix" values="0 0 0 0 0 0 0 0 0 0 0 0 0 0 0 0 0 0 127 0" result="hardAlpha"/>
<feOffset dx="-2.13795" dy="6.41386"/>
<feGaussianBlur stdDeviation="4.2759"/>
<feComposite in2="hardAlpha" operator="out"/>
<feColorMatrix type="matrix" values="0 0 0 0 0 0 0 0 0 0 0 0 0 0 0 0 0 0 0.25 0"/>
<feBlend mode="normal" in2="effect1_dropShadow_2950_9534" result="effect2_dropShadow_2950_9534"/>
<feBlend mode="normal" in="SourceGraphic" in2="effect2_dropShadow_2950_9534" result="shape"/>
<feColorMatrix in="SourceAlpha" type="matrix" values="0 0 0 0 0 0 0 0 0 0 0 0 0 0 0 0 0 0 127 0" result="hardAlpha"/>
<feOffset dy="-2.13795"/>
<feGaussianBlur stdDeviation="2.13795"/>
<feComposite in2="hardAlpha" operator="arithmetic" k2="-1" k3="1"/>
<feColorMatrix type="matrix" values="0 0 0 0 0 0 0 0 0 0.843137 0 0 0 0 0.721569 0 0 0 0.22 0"/>
<feBlend mode="normal" in2="shape" result="effect3_innerShadow_2950_9534"/>
<feColorMatrix in="SourceAlpha" type="matrix" values="0 0 0 0 0 0 0 0 0 0 0 0 0 0 0 0 0 0 127 0" result="hardAlpha"/>
<feOffset dy="2.13795"/>
<feGaussianBlur stdDeviation="1.06898"/>
<feComposite in2="hardAlpha" operator="arithmetic" k2="-1" k3="1"/>
<feColorMatrix type="matrix" values="0 0 0 0 0.622163 0 0 0 0 0.516369 0 0 0 0 1 0 0 0 1 0"/>
<feBlend mode="normal" in2="effect3_innerShadow_2950_9534" result="effect4_innerShadow_2950_9534"/>
</filter>
<filter id="filter7_ddii_2950_9534" x="48.4225" y="73.2141" width="29.3087" height="28.2691" filterUnits="userSpaceOnUse" color-interpolation-filters="sRGB">
<feFlood flood-opacity="0" result="BackgroundImageFix"/>
<feColorMatrix in="SourceAlpha" type="matrix" values="0 0 0 0 0 0 0 0 0 0 0 0 0 0 0 0 0 0 127 0" result="hardAlpha"/>
<feOffset dy="2.13795"/>
<feGaussianBlur stdDeviation="2.13795"/>
<feComposite in2="hardAlpha" operator="out"/>
<feColorMatrix type="matrix" values="0 0 0 0 0 0 0 0 0 0.843137 0 0 0 0 0.721569 0 0 0 0.03 0"/>
<feBlend mode="normal" in2="BackgroundImageFix" result="effect1_dropShadow_2950_9534"/>
<feColorMatrix in="SourceAlpha" type="matrix" values="0 0 0 0 0 0 0 0 0 0 0 0 0 0 0 0 0 0 127 0" result="hardAlpha"/>
<feOffset dx="-2.13795" dy="6.41386"/>
<feGaussianBlur stdDeviation="4.2759"/>
<feComposite in2="hardAlpha" operator="out"/>
<feColorMatrix type="matrix" values="0 0 0 0 0 0 0 0 0 0 0 0 0 0 0 0 0 0 0.25 0"/>
<feBlend mode="normal" in2="effect1_dropShadow_2950_9534" result="effect2_dropShadow_2950_9534"/>
<feBlend mode="normal" in="SourceGraphic" in2="effect2_dropShadow_2950_9534" result="shape"/>
<feColorMatrix in="SourceAlpha" type="matrix" values="0 0 0 0 0 0 0 0 0 0 0 0 0 0 0 0 0 0 127 0" result="hardAlpha"/>
<feOffset dy="-2.13795"/>
<feGaussianBlur stdDeviation="2.13795"/>
<feComposite in2="hardAlpha" operator="arithmetic" k2="-1" k3="1"/>
<feColorMatrix type="matrix" values="0 0 0 0 0 0 0 0 0 0.843137 0 0 0 0 0.721569 0 0 0 0.22 0"/>
<feBlend mode="normal" in2="shape" result="effect3_innerShadow_2950_9534"/>
<feColorMatrix in="SourceAlpha" type="matrix" values="0 0 0 0 0 0 0 0 0 0 0 0 0 0 0 0 0 0 127 0" result="hardAlpha"/>
<feOffset dy="2.13795"/>
<feGaussianBlur stdDeviation="1.06898"/>
<feComposite in2="hardAlpha" operator="arithmetic" k2="-1" k3="1"/>
<feColorMatrix type="matrix" values="0 0 0 0 0.622163 0 0 0 0 0.516369 0 0 0 0 1 0 0 0 1 0"/>
<feBlend mode="normal" in2="effect3_innerShadow_2950_9534" result="effect4_innerShadow_2950_9534"/>
</filter>
<filter id="filter8_ddii_2950_9534" x="46.5798" y="16.8584" width="28.2579" height="29.2167" filterUnits="userSpaceOnUse" color-interpolation-filters="sRGB">
<feFlood flood-opacity="0" result="BackgroundImageFix"/>
<feColorMatrix in="SourceAlpha" type="matrix" values="0 0 0 0 0 0 0 0 0 0 0 0 0 0 0 0 0 0 127 0" result="hardAlpha"/>
<feOffset dy="2.13795"/>
<feGaussianBlur stdDeviation="2.13795"/>
<feComposite in2="hardAlpha" operator="out"/>
<feColorMatrix type="matrix" values="0 0 0 0 0 0 0 0 0 0.843137 0 0 0 0 0.721569 0 0 0 0.03 0"/>
<feBlend mode="normal" in2="BackgroundImageFix" result="effect1_dropShadow_2950_9534"/>
<feColorMatrix in="SourceAlpha" type="matrix" values="0 0 0 0 0 0 0 0 0 0 0 0 0 0 0 0 0 0 127 0" result="hardAlpha"/>
<feOffset dx="-2.13795" dy="6.41386"/>
<feGaussianBlur stdDeviation="4.2759"/>
<feComposite in2="hardAlpha" operator="out"/>
<feColorMatrix type="matrix" values="0 0 0 0 0 0 0 0 0 0 0 0 0 0 0 0 0 0 0.25 0"/>
<feBlend mode="normal" in2="effect1_dropShadow_2950_9534" result="effect2_dropShadow_2950_9534"/>
<feBlend mode="normal" in="SourceGraphic" in2="effect2_dropShadow_2950_9534" result="shape"/>
<feColorMatrix in="SourceAlpha" type="matrix" values="0 0 0 0 0 0 0 0 0 0 0 0 0 0 0 0 0 0 127 0" result="hardAlpha"/>
<feOffset dy="-2.13795"/>
<feGaussianBlur stdDeviation="2.13795"/>
<feComposite in2="hardAlpha" operator="arithmetic" k2="-1" k3="1"/>
<feColorMatrix type="matrix" values="0 0 0 0 0 0 0 0 0 0.843137 0 0 0 0 0.721569 0 0 0 0.22 0"/>
<feBlend mode="normal" in2="shape" result="effect3_innerShadow_2950_9534"/>
<feColorMatrix in="SourceAlpha" type="matrix" values="0 0 0 0 0 0 0 0 0 0 0 0 0 0 0 0 0 0 127 0" result="hardAlpha"/>
<feOffset dy="2.13795"/>
<feGaussianBlur stdDeviation="1.06898"/>
<feComposite in2="hardAlpha" operator="arithmetic" k2="-1" k3="1"/>
<feColorMatrix type="matrix" values="0 0 0 0 0.622163 0 0 0 0 0.516369 0 0 0 0 1 0 0 0 1 0"/>
<feBlend mode="normal" in2="effect3_innerShadow_2950_9534" result="effect4_innerShadow_2950_9534"/>
</filter>
<linearGradient id="paint0_linear_2950_9534" x1="75.5927" y1="60.8312" x2="63.6252" y2="64.7469" gradientUnits="userSpaceOnUse">
<stop stop-color="#6641DD"/>
<stop offset="1" stop-color="#372377"/>
</linearGradient>
<linearGradient id="paint1_linear_2950_9534" x1="12.6822" y1="38.7514" x2="26.9489" y2="43.9102" gradientUnits="userSpaceOnUse">
<stop offset="0.224368" stop-color="#6641DD"/>
<stop offset="1" stop-color="#372377"/>
</linearGradient>
<clipPath id="clip0_2950_9534">
<rect width="300" height="100" fill="white"/>
</clipPath>
<clipPath id="clip1_2950_9534">
<rect x="101" y="11" width="122" height="22" rx="11" fill="white"/>
</clipPath>
</defs>
</svg>
