<?xml version="1.0" encoding="UTF-8"?>
<svg xmlns="http://www.w3.org/2000/svg" xmlns:xlink="http://www.w3.org/1999/xlink" width="1000px" height="569px" viewBox="0 0 999 569" version="1.1">
<g id="surface1">
<path style="fill:none;stroke-width:2;stroke-linecap:round;stroke-linejoin:round;stroke:rgb(93.72549%,47.843137%,5.490196%);stroke-opacity:1;stroke-miterlimit:4;" d="M 12.687218 33.903305 L 15.699324 25.754195 L 1.309122 15.733029 L 18.711149 15.733029 L 22.950169 1.967755 L 27.077421 15.733029 L 48.599944 15.733029 " transform="matrix(13.875,0,0,13.878049,0,0)"/>
<path style=" stroke:none;fill-rule:nonzero;fill:rgb(20%,20%,20%);fill-opacity:1;" d="M 360.960938 511.914062 L 395.242188 511.914062 C 393.449219 524.964844 387.644531 535.429688 377.832031 543.304688 C 368.140625 551.183594 355.515625 555.121094 339.960938 555.121094 C 320.457031 555.121094 305.140625 549.496094 294.011719 538.242188 C 283.003906 526.878906 277.5 511.6875 277.5 492.671875 C 277.5 473.652344 283.003906 458.519531 294.011719 447.265625 C 305.140625 435.902344 320.457031 430.21875 339.960938 430.21875 C 354.800781 430.21875 366.945312 433.875 376.398438 441.191406 C 385.96875 448.394531 391.890625 457.902344 394.167969 469.714844 L 359.523438 469.714844 C 357.371094 461.839844 350.851562 457.902344 339.960938 457.902344 C 330.867188 457.902344 323.867188 461.109375 318.960938 467.519531 C 314.054688 473.824219 311.601562 482.207031 311.601562 492.671875 C 311.601562 503.136719 314.054688 511.574219 318.960938 517.988281 C 323.867188 524.289062 330.867188 527.441406 339.960938 527.441406 C 345.824219 527.441406 350.550781 526.089844 354.140625 523.390625 C 357.851562 520.6875 360.121094 516.863281 360.960938 511.914062 Z M 360.960938 511.914062 "/>
<path style=" stroke:none;fill-rule:nonzero;fill:rgb(20%,20%,20%);fill-opacity:1;" d="M 417.503906 432.414062 L 480.144531 432.414062 C 494.980469 432.414062 506.46875 435.84375 514.605469 442.710938 C 522.863281 449.574219 526.988281 459.136719 526.988281 471.402344 C 526.988281 486.707031 520.769531 497.734375 508.324219 504.488281 L 526.808594 552.929688 L 493.425781 552.929688 L 477.453125 510.730469 L 450.886719 510.730469 L 450.886719 552.929688 L 417.503906 552.929688 Z M 450.886719 484.570312 L 475.65625 484.570312 C 487.144531 484.570312 492.886719 480.40625 492.886719 472.078125 C 492.886719 463.863281 487.144531 459.757812 475.65625 459.757812 L 450.886719 459.757812 Z M 450.886719 484.570312 "/>
<path style=" stroke:none;fill-rule:nonzero;fill:rgb(20%,20%,20%);fill-opacity:1;" d="M 632.761719 504.992188 L 583.222656 504.992188 L 583.222656 525.246094 L 649.8125 525.246094 L 649.8125 552.929688 L 549.839844 552.929688 L 549.839844 432.414062 L 648.195312 432.414062 L 648.195312 460.09375 L 583.222656 460.09375 L 583.222656 477.988281 L 632.761719 477.988281 Z M 632.761719 504.992188 "/>
<path style=" stroke:none;fill-rule:nonzero;fill:rgb(20%,20%,20%);fill-opacity:1;" d="M 670.957031 432.414062 L 728.035156 432.414062 C 747.300781 432.414062 762.015625 437.816406 772.1875 448.617188 C 782.359375 459.421875 787.445312 474.105469 787.445312 492.671875 C 787.445312 511.238281 782.359375 525.921875 772.1875 536.722656 C 762.015625 547.527344 747.300781 552.929688 728.035156 552.929688 L 670.957031 552.929688 Z M 704.34375 525.246094 L 722.648438 525.246094 C 733.300781 525.246094 741.078125 522.265625 745.984375 516.300781 C 750.886719 510.335938 753.339844 502.460938 753.339844 492.671875 C 753.339844 482.769531 750.886719 474.890625 745.984375 469.039062 C 741.078125 463.078125 733.300781 460.09375 722.648438 460.09375 L 704.34375 460.09375 Z M 704.34375 525.246094 "/>
<path style=" stroke:none;fill-rule:nonzero;fill:rgb(20%,20%,20%);fill-opacity:1;" d="M 843.882812 432.414062 L 843.882812 552.929688 L 810.5 552.929688 L 810.5 432.414062 Z M 843.882812 432.414062 "/>
<path style=" stroke:none;fill-rule:nonzero;fill:rgb(20%,20%,20%);fill-opacity:1;" d="M 971.25 432.414062 L 971.25 460.09375 L 932.839844 460.09375 L 932.839844 552.929688 L 899.457031 552.929688 L 899.457031 460.09375 L 861.226562 460.09375 L 861.226562 432.414062 Z M 971.25 432.414062 "/>
<path style=" stroke:none;fill-rule:nonzero;fill:rgb(93.72549%,47.843137%,5.490196%);fill-opacity:1;" d="M 366.1875 294.847656 L 312.273438 294.847656 L 312.273438 318.847656 L 354.828125 318.847656 L 354.828125 334.707031 L 312.273438 334.707031 L 312.273438 373.277344 L 291.375 373.277344 L 291.375 278.988281 L 366.1875 278.988281 Z M 366.1875 294.847656 "/>
<path style=" stroke:none;fill-rule:nonzero;fill:rgb(93.72549%,47.843137%,5.490196%);fill-opacity:1;" d="M 405.003906 278.988281 L 405.003906 373.277344 L 384.105469 373.277344 L 384.105469 278.988281 Z M 405.003906 278.988281 "/>
<path style=" stroke:none;fill-rule:nonzero;fill:rgb(93.72549%,47.843137%,5.490196%);fill-opacity:1;" d="M 475.054688 278.988281 C 486.363281 278.988281 495.25 281.5625 501.710938 286.703125 C 508.171875 291.847656 511.402344 298.753906 511.402344 307.417969 C 511.402344 316.660156 508.171875 323.753906 501.710938 328.707031 C 495.25 333.5625 486.414062 335.992188 475.207031 335.992188 L 473.085938 337.132812 L 451.582031 337.132812 L 451.582031 373.277344 L 430.988281 373.277344 L 430.988281 278.988281 Z M 472.632812 322.132812 C 478.488281 322.132812 482.832031 321.039062 485.65625 318.847656 C 488.585938 316.5625 490.046875 313.085938 490.046875 308.417969 C 490.046875 303.753906 488.585938 300.324219 485.65625 298.132812 C 482.832031 295.847656 478.488281 294.703125 472.632812 294.703125 L 451.582031 294.703125 L 451.582031 322.132812 Z M 484.898438 326.277344 L 517.308594 373.277344 L 493.835938 373.277344 L 467.03125 331.992188 Z M 484.898438 326.277344 "/>
<path style=" stroke:none;fill-rule:nonzero;fill:rgb(93.72549%,47.843137%,5.490196%);fill-opacity:1;" d="M 570.417969 277.5625 C 579.503906 277.5625 587.480469 279.039062 594.34375 281.988281 C 601.210938 284.941406 607.066406 289.324219 611.914062 295.132812 L 600.25 307.847656 C 596.113281 302.894531 591.570312 299.277344 586.621094 296.992188 C 581.777344 294.609375 576.121094 293.417969 569.660156 293.417969 C 565.421875 293.417969 561.886719 293.941406 559.058594 294.992188 C 556.332031 296.039062 554.316406 297.417969 553.003906 299.132812 C 551.789062 300.847656 551.183594 302.753906 551.183594 304.847656 C 551.183594 307.417969 552.246094 309.609375 554.363281 311.417969 C 556.484375 313.132812 560.121094 314.5625 565.269531 315.703125 L 583.894531 319.707031 C 593.789062 321.800781 600.859375 324.945312 605.097656 329.132812 C 609.441406 333.230469 611.609375 338.5625 611.609375 345.132812 C 611.609375 351.324219 609.894531 356.660156 606.460938 361.136719 C 603.027344 365.515625 598.234375 368.898438 592.074219 371.277344 C 585.914062 373.5625 578.847656 374.707031 570.871094 374.707031 C 563.90625 374.707031 557.496094 373.945312 551.640625 372.421875 C 545.882812 370.800781 540.734375 368.613281 536.191406 365.851562 C 531.648438 363.085938 527.863281 359.898438 524.832031 356.277344 L 536.644531 342.992188 C 538.96875 346.039062 541.84375 348.753906 545.277344 351.136719 C 548.710938 353.515625 552.597656 355.421875 556.941406 356.847656 C 561.382812 358.183594 566.027344 358.851562 570.871094 358.851562 C 575.011719 358.851562 578.496094 358.421875 581.320312 357.5625 C 584.25 356.613281 586.421875 355.324219 587.832031 353.707031 C 589.347656 351.992188 590.105469 349.945312 590.105469 347.5625 C 590.105469 345.085938 589.195312 342.992188 587.378906 341.277344 C 585.664062 339.46875 582.433594 338.085938 577.6875 337.132812 L 557.394531 332.847656 C 551.539062 331.515625 546.492188 329.800781 542.25 327.707031 C 538.109375 325.515625 534.929688 322.753906 532.707031 319.421875 C 530.589844 315.992188 529.527344 311.945312 529.527344 307.277344 C 529.527344 301.65625 531.144531 296.609375 534.375 292.132812 C 537.605469 287.65625 542.25 284.132812 548.308594 281.5625 C 554.464844 278.894531 561.835938 277.5625 570.417969 277.5625 Z M 570.417969 277.5625 "/>
<path style=" stroke:none;fill-rule:nonzero;fill:rgb(93.72549%,47.843137%,5.490196%);fill-opacity:1;" d="M 707.625 278.988281 L 707.625 294.847656 L 674.15625 294.847656 L 674.15625 373.277344 L 653.257812 373.277344 L 653.257812 294.847656 L 619.636719 294.847656 L 619.636719 278.988281 Z M 707.625 278.988281 "/>
</g>
</svg>
