<svg width="342" height="144" viewBox="0 0 342 144" fill="none" xmlns="http://www.w3.org/2000/svg">
<path d="M124.067 66.1221C86.2097 63.3925 70.9998 40.9383 68.1269 30.0527C91.4133 61.8977 125.421 62.0602 139.514 58.1606C120.824 59.7797 105.477 54.9375 97.3634 50.9846C95.7616 50.3037 94.401 49.5541 93.3321 48.7373C94.3523 49.4075 95.7071 50.1774 97.3634 50.9846C104.047 53.825 114.931 55.4616 126.343 55.7236C140.49 56.0486 161.143 40.2887 165.371 38.1764C169.598 36.0641 189.6 33.1395 197.731 48.7373C210.251 75.5462 181.306 81.8825 173.012 84.8064C164.72 87.7303 158.703 94.2301 159.029 94.5551C160.329 93.1252 165.424 90.3842 167.809 89.1941C164.72 91.1427 158.052 98.941 160.979 105.604C163.907 112.266 164.882 126.564 164.72 129.487C164.557 132.411 158.866 139.398 158.052 137.611C157.24 135.824 159.841 130.788 160.329 128.512C160.719 126.693 158.974 125.155 158.052 124.613C158.324 125.425 158.574 127.798 157.402 130.788C155.939 134.523 147.808 141.185 146.507 139.073C145.206 136.961 150.248 132.086 151.223 130.788C152.198 129.487 152.037 122.176 152.037 119.414C152.037 116.651 149.597 104.954 148.946 101.703C148.296 98.4543 145.369 90.9811 151.223 88.3805C163.256 82.856 176.59 72.6206 176.429 68.3965C176.266 64.1722 170.899 62.0602 161.143 61.8977C151.386 61.7351 140.002 67.2593 124.067 66.1221Z" fill="#03B047"/>
<path d="M170.505 33.9841C200.653 31.7839 204.834 55.932 203.156 68.2808C206.242 66.5015 217.449 64.8836 224.921 62.6186C232.395 60.3538 240.354 52.4267 240.678 51.9411C241.004 51.4561 241.815 53.2357 241.165 53.559C239.38 54.2062 239.541 56.7946 240.028 58.4125C240.517 60.0302 240.841 65.8543 240.354 67.472C239.867 69.0892 234.019 71.6786 233.206 72.8106C232.395 73.9426 234.343 74.9137 238.243 74.2663C242.141 73.6189 246.363 68.4427 246.363 66.5015C246.363 58.4125 247.339 48.7059 248.15 45.9557C248.963 43.2053 255.784 40.9404 256.76 37.543C257.734 32.8517 259.358 30.7485 262.769 29.2925C266.18 27.8364 271.054 30.9102 274.791 31.8809C278.526 32.8517 282.263 27.6748 281.613 26.7041C280.963 25.7334 278.202 24.4392 276.089 22.4978C273.978 20.5564 271.867 15.5413 269.267 14.8943C265.53 13.7618 262.932 11.8204 262.119 9.23201C260.04 1.46667 254.648 -0.151026 252.211 0.0106373C251.952 5.7053 253.186 8.74666 253.836 9.55551C251.626 6.96712 248.8 6.42783 247.663 6.48178C248.313 12.8235 253.132 15.4874 255.46 16.0267C253.186 20.0711 247.339 24.7627 234.182 25.895C223.655 26.801 217.883 24.5469 216.312 23.3067C222.681 24.2126 229.471 24.1155 232.069 23.9539C228.171 23.792 216.638 19.1004 203.156 19.1004C192.37 19.1004 176.895 29.0227 170.505 33.9841Z" fill="#111B25"/>
<path d="M29.0543 87.5668H17.3617C15.6609 87.5668 14.5271 88.5622 14.5271 90.1977V94.0374H29.0543V103.281H14.5271V129.448H4.96046V103.281H0V94.0374H4.96046V88.6334C4.96046 82.4472 9.28318 78.252 15.5192 78.252H29.0543V87.5668ZM34.6809 78.252H44.2475V89.4866H34.6809V78.252ZM34.6809 94.0374H44.2475V129.448H34.6809V94.0374ZM72.7526 93.0419C81.3271 93.0419 86.7837 98.8014 86.7837 108.97V129.448H77.217V110.392C77.217 105.272 73.9573 102.428 69.9889 102.428C65.6662 102.428 61.9812 105.77 61.9812 111.103V129.448H52.4146V94.0374H61.6978V98.3037H62.0521C64.3906 95.0329 68.359 93.0419 72.7526 93.0419ZM120.596 98.5881V94.0374H130.092V129.448H120.596V124.755H120.242C118.045 128.026 114.006 130.443 108.833 130.514C99.2664 130.514 92.0382 122.977 92.0382 111.814C92.0382 100.864 98.912 92.8997 108.904 92.9708C114.006 92.9708 118.045 95.3884 120.242 98.5881H120.596ZM111.172 121.413C116.841 121.413 120.596 117.004 120.596 111.743C120.596 106.268 116.699 102.072 111.172 102.072C105.573 102.072 101.676 106.196 101.676 111.743C101.676 117.289 105.573 121.413 111.172 121.413Z" fill="black"/>
<path d="M218.696 98.5584V94.0138H228.187V132.997C228.187 139.814 224.291 143.578 217.421 143.578H194.754V133.991H215.366C217.421 133.991 218.696 132.855 218.696 130.796V124.689H218.341C216.146 127.956 212.108 130.37 206.937 130.441C197.375 130.441 190.15 122.914 190.15 111.766C190.15 100.831 197.021 92.8777 207.008 92.9487C212.108 92.9487 216.146 95.363 218.341 98.5584H218.696ZM209.275 121.352C214.941 121.352 218.696 116.949 218.696 111.695C218.696 106.227 214.8 102.038 209.275 102.038C203.679 102.038 199.783 106.156 199.783 111.695C199.783 117.234 203.679 121.352 209.275 121.352ZM235.361 113.044V94.0138H244.923V112.902C244.923 117.447 247.615 121.139 252.644 121.139C257.602 121.139 260.294 117.447 260.294 112.902V94.0138H269.857V113.044C269.857 123.695 263.269 130.441 252.644 130.441C242.09 130.441 235.361 123.695 235.361 113.044ZM295.171 94.0138H302.608V103.6H294.675C290.071 103.6 286.812 106.866 286.812 111.766V129.376H277.25V94.0138H286.316V99.5525H286.671C287.946 96.0731 291.062 94.0138 295.171 94.0138ZM307.265 113.044V94.0138H316.828V112.902C316.828 117.447 319.519 121.139 324.549 121.139C329.507 121.139 332.199 117.447 332.199 112.902V94.0138H341.761V113.044C341.761 123.695 335.174 130.441 324.549 130.441C313.994 130.441 307.265 123.695 307.265 113.044Z" fill="#03B047"/>
</svg>
