<svg width="119" height="45" viewBox="0 0 119 45" fill="none" xmlns="http://www.w3.org/2000/svg">
<path fill-rule="evenodd" clip-rule="evenodd" d="M22.5 0C34.9182 0 45 10.0818 45 22.5C45 34.9182 34.9182 45 22.5 45C10.0818 45 0 34.9182 0 22.5C0 10.0818 10.0823 0 22.5 0Z" fill="#FFE44E"/>
<mask id="mask0_1504_202" style="mask-type:luminance" maskUnits="userSpaceOnUse" x="0" y="0" width="45" height="45">
<path d="M22.5 0C34.9182 0 45 10.0818 45 22.5C45 34.9182 34.9182 45 22.5 45C10.0818 45 0 34.9182 0 22.5C0 10.0818 10.0823 0 22.5 0Z" fill="white"/>
</mask>
<g mask="url(#mask0_1504_202)">
<path opacity="0.6" fill-rule="evenodd" clip-rule="evenodd" d="M42.8988 2.79334L40.3084 0L-1.90186 39.1476L0.688598 41.9409L42.8988 2.79334Z" fill="#FFF3CA"/>
<path opacity="0.6" fill-rule="evenodd" clip-rule="evenodd" d="M54.1755 13.1258L52.2969 11.1006L10.0872 50.2482L11.9652 52.2734L54.1755 13.1258Z" fill="#FFF3CA"/>
<path opacity="0.6" fill-rule="evenodd" clip-rule="evenodd" d="M48.4275 7.901L44.6014 3.77539L2.39111 42.9225L6.21726 47.0481L48.4275 7.901Z" fill="#FFF3CA"/>
</g>
<path fill-rule="evenodd" clip-rule="evenodd" d="M22.4998 4.5C32.4344 4.5 40.5001 12.5657 40.5001 22.5003C40.5001 32.4349 32.4344 40.5006 22.4998 40.5006C12.5652 40.5006 4.5 32.4344 4.5 22.4998C4.5 12.5652 12.5657 4.5 22.4998 4.5Z" fill="#EB9F06"/>
<path fill-rule="evenodd" clip-rule="evenodd" d="M23.0347 5.24805C32.8451 5.24805 40.8096 13.2126 40.8096 23.023C40.8096 32.8334 32.8451 40.7979 23.0347 40.7979C13.2243 40.7979 5.25977 32.8334 5.25977 23.023C5.25977 13.2126 13.2243 5.24805 23.0347 5.24805Z" fill="#F8CE3D"/>
<path d="M40.8094 23.0234C40.8094 18.7159 39.2737 14.7645 36.7206 11.6865C27.0589 18.5237 18.9466 27.4081 13.0176 37.7055C15.8707 39.6567 19.3202 40.7988 23.0344 40.7988C32.8448 40.7988 40.8094 32.8343 40.8094 23.0239V23.0234Z" fill="#FFC402"/>
<line x1="16.9964" y1="13.5607" x2="19.985" y2="13.8222" stroke="#2E2E2E" stroke-width="2" stroke-linecap="round"/>
<line x1="25.8221" y1="13.8219" x2="28.8107" y2="13.5605" stroke="#2E2E2E" stroke-width="2" stroke-linecap="round"/>
<ellipse cx="18.9848" cy="18.0002" rx="1.35" ry="1.8" fill="#2E2E2E"/>
<ellipse cx="27.0849" cy="18.0002" rx="1.35" ry="1.8" fill="#2E2E2E"/>
<path d="M15.7202 31.2802C19.9899 32.1881 22.0739 30.0545 22.8152 29.0075C23.5565 30.0545 25.6405 32.1881 29.9102 31.2802C36.8404 29.8064 36.0828 26.0994 35.0972 25.1276C34.1748 24.2184 33.0952 24.4408 33.0952 24.4408C34.3252 24.9753 34.6817 26.31 33.7406 27.1609C32.6284 28.1666 31.1953 27.1791 28.2929 25.1859C25.9733 23.5924 23.6536 24.5461 22.8158 24.9935C21.9781 24.5467 19.6584 23.5924 17.3387 25.1859C14.4357 27.1797 13.002 28.1666 11.8898 27.1609C10.9487 26.31 11.3052 24.9753 12.5352 24.4408C12.5352 24.4408 11.4556 24.2184 10.5332 25.1276C9.5476 26.0994 8.79004 29.8064 15.7202 31.2802Z" fill="#2E2E2E"/>
<path d="M56.5 20V6H69.64V20H65.72V8.26L66.6 9.14H59.54L60.4 8.26V20H56.5Z" fill="#2E2E2E"/>
<path d="M78.8328 20V17.98L78.5728 17.48V13.76C78.5728 13.16 78.3861 12.7 78.0128 12.38C77.6528 12.0467 77.0728 11.88 76.2728 11.88C75.7528 11.88 75.2261 11.9667 74.6928 12.14C74.1595 12.3 73.7061 12.5267 73.3328 12.82L72.0528 10.24C72.6661 9.84 73.3995 9.53333 74.2528 9.32C75.1195 9.09333 75.9795 8.98 76.8328 8.98C78.5928 8.98 79.9528 9.38667 80.9128 10.2C81.8861 11 82.3728 12.26 82.3728 13.98V20H78.8328ZM75.6328 20.18C74.7661 20.18 74.0328 20.0333 73.4328 19.74C72.8328 19.4467 72.3728 19.0467 72.0528 18.54C71.7461 18.0333 71.5928 17.4667 71.5928 16.84C71.5928 16.1733 71.7595 15.6 72.0928 15.12C72.4395 14.6267 72.9661 14.2533 73.6728 14C74.3795 13.7333 75.2928 13.6 76.4128 13.6H78.9728V15.58H76.9328C76.3195 15.58 75.8861 15.68 75.6328 15.88C75.3928 16.08 75.2728 16.3467 75.2728 16.68C75.2728 17.0133 75.3995 17.28 75.6528 17.48C75.9061 17.68 76.2528 17.78 76.6928 17.78C77.1061 17.78 77.4795 17.68 77.8128 17.48C78.1595 17.2667 78.4128 16.9467 78.5728 16.52L79.0928 17.92C78.8928 18.6667 78.4995 19.2333 77.9128 19.62C77.3395 19.9933 76.5795 20.18 75.6328 20.18Z" fill="#2E2E2E"/>
<path d="M84.6589 20V9.16H88.4389V13.18H92.3389V9.16H96.1389V20H92.3389V16.2H88.4389V20H84.6589Z" fill="#2E2E2E"/>
<path d="M56.5 40V26H66.76L66.74 29.14H59.52L60.4 28.26V40H56.5Z" fill="#2E2E2E"/>
<path d="M74.5648 40.18C73.6448 40.18 72.8582 39.98 72.2048 39.58C71.5515 39.1667 71.0515 38.5533 70.7048 37.74C70.3715 36.9133 70.2048 35.86 70.2048 34.58C70.2048 33.2867 70.3648 32.2333 70.6848 31.42C71.0048 30.5933 71.4848 29.98 72.1248 29.58C72.7782 29.18 73.5915 28.98 74.5648 28.98C75.5515 28.98 76.4448 29.2133 77.2448 29.68C78.0582 30.1333 78.6982 30.78 79.1648 31.62C79.6448 32.4467 79.8848 33.4333 79.8848 34.58C79.8848 35.7267 79.6448 36.72 79.1648 37.56C78.6982 38.4 78.0582 39.0467 77.2448 39.5C76.4448 39.9533 75.5515 40.18 74.5648 40.18ZM67.7448 43.88V29.16H71.3648V31L71.3448 34.58L71.5448 38.18V43.88H67.7448ZM73.7648 37.16C74.1915 37.16 74.5715 37.06 74.9048 36.86C75.2515 36.66 75.5248 36.3667 75.7248 35.98C75.9382 35.5933 76.0448 35.1267 76.0448 34.58C76.0448 34.0333 75.9382 33.5667 75.7248 33.18C75.5248 32.7933 75.2515 32.5 74.9048 32.3C74.5715 32.1 74.1915 32 73.7648 32C73.3382 32 72.9515 32.1 72.6048 32.3C72.2715 32.5 71.9982 32.7933 71.7848 33.18C71.5848 33.5667 71.4848 34.0333 71.4848 34.58C71.4848 35.1267 71.5848 35.5933 71.7848 35.98C71.9982 36.3667 72.2715 36.66 72.6048 36.86C72.9515 37.06 73.3382 37.16 73.7648 37.16Z" fill="#2E2E2E"/>
<path d="M87.0497 40.18C85.863 40.18 84.8097 39.94 83.8897 39.46C82.9697 38.98 82.243 38.32 81.7097 37.48C81.1897 36.6267 80.9297 35.6533 80.9297 34.56C80.9297 33.4667 81.1897 32.5 81.7097 31.66C82.243 30.82 82.9697 30.1667 83.8897 29.7C84.8097 29.22 85.863 28.98 87.0497 28.98C88.2364 28.98 89.2897 29.22 90.2097 29.7C91.143 30.1667 91.8697 30.82 92.3897 31.66C92.9097 32.5 93.1697 33.4667 93.1697 34.56C93.1697 35.6533 92.9097 36.6267 92.3897 37.48C91.8697 38.32 91.143 38.98 90.2097 39.46C89.2897 39.94 88.2364 40.18 87.0497 40.18ZM87.0497 37.16C87.4897 37.16 87.8764 37.06 88.2097 36.86C88.5564 36.66 88.8297 36.3667 89.0297 35.98C89.2297 35.58 89.3297 35.1067 89.3297 34.56C89.3297 34.0133 89.2297 33.5533 89.0297 33.18C88.8297 32.7933 88.5564 32.5 88.2097 32.3C87.8764 32.1 87.4897 32 87.0497 32C86.623 32 86.2364 32.1 85.8897 32.3C85.5564 32.5 85.283 32.7933 85.0697 33.18C84.8697 33.5533 84.7697 34.0133 84.7697 34.56C84.7697 35.1067 84.8697 35.58 85.0697 35.98C85.283 36.3667 85.5564 36.66 85.8897 36.86C86.2364 37.06 86.623 37.16 87.0497 37.16Z" fill="#2E2E2E"/>
<path d="M102.492 36.96L101.672 37.82V29.16H105.452V37.82L104.592 36.96H109.192L108.372 37.82V29.16H112.132V40H94.9519V29.16H98.7319V37.82L97.9119 36.96H102.492Z" fill="#2E2E2E"/>
<path d="M114.638 40V29.16H118.438V40H114.638ZM116.538 27.96C115.845 27.96 115.285 27.7667 114.858 27.38C114.431 26.9933 114.218 26.5133 114.218 25.94C114.218 25.3667 114.431 24.8867 114.858 24.5C115.285 24.1133 115.845 23.92 116.538 23.92C117.231 23.92 117.791 24.1067 118.218 24.48C118.645 24.84 118.858 25.3067 118.858 25.88C118.858 26.48 118.645 26.98 118.218 27.38C117.805 27.7667 117.245 27.96 116.538 27.96Z" fill="#2E2E2E"/>
</svg>
