<svg width="150" height="24" viewBox="0 0 150 24" fill="none" xmlns="http://www.w3.org/2000/svg">
<path d="M29.5995 1H7.15804C6.30327 1 5.61035 1.68586 5.61035 2.53191V17.0851C5.61035 17.9312 6.30327 18.617 7.15804 18.617H29.5995C30.4542 18.617 31.1471 17.9312 31.1471 17.0851V2.53191C31.1471 1.68586 30.4542 1 29.5995 1Z" stroke="white" stroke-width="1.54768"/>
<path d="M24.7629 3.68085H2.32153C1.03938 3.68085 0 4.70964 0 5.97872V20.5319C0 21.801 1.03938 22.8298 2.32153 22.8298H24.7629C26.0451 22.8298 27.0845 21.801 27.0845 20.5319V5.97872C27.0845 4.70964 26.0451 3.68085 24.7629 3.68085Z" fill="white"/>
<path d="M8.7392 13.0427V12.2702H13.4081C13.9687 12.0241 14.2695 11.696 14.2695 11.2038V11.1901C14.2695 10.6706 13.7363 10.2126 12.7314 10.2126C11.8154 10.2126 11.1796 10.5954 11.0771 11.2038L11.0634 11.2722H9.42279V11.2175C9.51166 9.80927 10.8173 8.81122 12.8066 8.81122C14.8095 8.81122 15.9785 9.78876 15.9785 11.0671V11.0807C15.9785 11.5319 15.8212 11.9489 15.4794 12.2702H16.7099V13.0427H8.7392ZM8.7392 14.8952V14.1227H16.7099V14.8952H11.8974C11.3232 15.1481 11.0156 15.4763 11.0156 15.9684V15.9821C11.0156 16.5016 11.5829 16.9665 12.663 16.9665C13.6474 16.9665 14.3378 16.5768 14.4404 15.9616L14.454 15.8932H16.0947L16.0878 15.9479C16.0058 17.3698 14.6454 18.3679 12.5878 18.3679C10.5165 18.3679 9.30658 17.3835 9.30658 16.112V16.0983C9.30658 15.6335 9.46381 15.2165 9.81244 14.8952H8.7392Z" fill="#3C3C3C"/>
<path d="M39.1472 8.30502H40.7956V13.4535C40.7956 13.818 40.9206 14.1279 41.1706 14.3831C41.4206 14.6384 41.7201 14.766 42.069 14.766H44.9362V8.30502H46.5847V14.7581C46.5847 15.2113 46.4232 15.5993 46.1003 15.9222C45.7774 16.2399 45.3841 16.3988 44.9206 16.3988H42.069C41.5326 16.3988 41.043 16.2686 40.6003 16.0081C40.1576 15.7425 39.8034 15.3884 39.5378 14.9456C39.2774 14.5029 39.1472 14.0134 39.1472 13.4769V8.30502Z" fill="white"/>
<path d="M49.4815 11.2113C49.4815 10.6748 49.6117 10.1878 49.8722 9.75034C50.1378 9.31284 50.4919 8.96388 50.9347 8.70346C51.3774 8.43784 51.8669 8.30502 52.4034 8.30502H56.919V16.3988H55.2706V9.95346H52.4034C52.0544 9.95346 51.755 10.0785 51.505 10.3285C51.255 10.5733 51.13 10.8727 51.13 11.2269V13.4613C51.13 13.8154 51.255 14.1201 51.505 14.3753C51.755 14.6253 52.0544 14.7503 52.4034 14.7503H54.3331V16.3988H52.4034C51.8669 16.3988 51.3774 16.2686 50.9347 16.0081C50.4919 15.7425 50.1378 15.3884 49.8722 14.9456C49.6117 14.5029 49.4815 14.0134 49.4815 13.4769V11.2113Z" fill="white"/>
<path d="M58.855 15.4613C58.855 15.18 58.9539 14.9404 59.1518 14.7425C59.3498 14.5446 59.5893 14.4456 59.8706 14.4456C60.1571 14.4456 60.3966 14.5446 60.5893 14.7425C60.7873 14.9352 60.8862 15.1748 60.8862 15.4613C60.8862 15.7477 60.7873 15.9899 60.5893 16.1878C60.3966 16.3805 60.1571 16.4769 59.8706 16.4769C59.5893 16.4769 59.3498 16.3779 59.1518 16.18C58.9539 15.9821 58.855 15.7425 58.855 15.4613Z" fill="white"/>
<path d="M62.744 11.2269C62.744 10.6904 62.8794 10.2009 63.1503 9.75815C63.4211 9.31544 63.7831 8.96388 64.2362 8.70346C64.6893 8.43784 65.1919 8.30502 65.744 8.30502H70.2987V9.95346H65.744C65.3742 9.95346 65.0565 10.0811 64.7909 10.3363C64.5253 10.5863 64.3925 10.891 64.3925 11.2503V13.4456C64.3925 13.805 64.5227 14.1123 64.7831 14.3675C65.0487 14.6227 65.369 14.7503 65.744 14.7503H70.2987V16.3988H65.744C65.1919 16.3988 64.6893 16.266 64.2362 16.0003C63.7831 15.7347 63.4211 15.3805 63.1503 14.9378C62.8794 14.4899 62.744 13.9977 62.744 13.4613V11.2269Z" fill="white"/>
<path d="M72.2034 10.5706C72.2034 10.154 72.3076 9.77377 72.5159 9.43002C72.7294 9.08627 73.0107 8.81284 73.3597 8.60971C73.7138 8.40659 74.1044 8.30502 74.5315 8.30502H79.1472V9.08627V9.94565H74.5315C74.344 9.94565 74.1826 10.0108 74.0472 10.141C73.9169 10.266 73.8518 10.4196 73.8518 10.6019V16.3988H72.2034V10.5706Z" fill="white"/>
<path d="M81.0241 9.9769C81.0241 9.51336 81.1934 9.12013 81.532 8.79721C81.8705 8.46909 82.2768 8.30502 82.7507 8.30502H86.1257C86.558 8.30502 87.6752 8.37273 88.0241 8.58627C88.3783 8.79461 88.6596 9.07846 88.8679 9.43784C89.0814 9.792 89.1882 10.1852 89.1882 10.6175V10.8441C89.1882 11.2712 89.0814 11.6618 88.8679 12.016C88.6596 12.3649 88.3783 12.6462 88.0241 12.8597C87.6752 13.068 86.558 13.2113 86.1257 13.2113H83.6101V11.5706L87.0241 11.5863C87.2116 11.5863 87.2785 11.5264 87.4088 11.391C87.5442 11.2555 87.6119 11.0915 87.6119 10.8988V10.68C87.6119 10.4821 87.5442 10.3154 87.4088 10.18C87.2785 10.0446 87.1197 9.9769 86.9322 9.9769L82.6726 9.95346V14.1097C82.6726 14.2868 82.7325 14.4378 82.8523 14.5628C82.9721 14.6878 83.1179 14.7503 83.2898 14.7503H87.8913V16.3988H83.2898C82.8731 16.3988 82.4929 16.2972 82.1491 16.0941C81.8054 15.8858 81.532 15.6097 81.3288 15.266C81.1257 14.917 81.0241 14.5342 81.0241 14.1175V9.9769Z" fill="white"/>
<path d="M91.3253 11.2269C91.3253 10.6904 91.4555 10.2009 91.7159 9.75815C91.9815 9.31544 92.3357 8.96388 92.7784 8.70346C93.2211 8.43784 93.7107 8.30502 94.2472 8.30502H96.1768V9.95346H94.2472C93.8982 9.95346 93.5987 10.0811 93.3487 10.3363C93.0987 10.5863 92.9737 10.8884 92.9737 11.2425V13.4769C92.9737 13.8259 93.0987 14.1253 93.3487 14.3753C93.5987 14.6253 93.8982 14.7503 94.2472 14.7503H97.1143V5.2894H98.7628V14.7503C98.7628 15.2035 98.6013 15.5915 98.2784 15.9144C97.9555 16.2373 97.5675 16.3988 97.1143 16.3988H94.2472C93.7107 16.3988 93.2211 16.2686 92.7784 16.0081C92.3357 15.7425 91.9815 15.391 91.7159 14.9535C91.4555 14.5108 91.3253 14.0238 91.3253 13.4925V11.2269Z" fill="white"/>
<path d="M101.55 6.1019C101.55 5.82065 101.649 5.58106 101.847 5.38315C102.045 5.18523 102.285 5.08627 102.566 5.08627C102.847 5.08627 103.087 5.18523 103.285 5.38315C103.483 5.58106 103.582 5.82065 103.582 6.1019C103.582 6.38315 103.483 6.62273 103.285 6.82065C103.087 7.01856 102.847 7.11752 102.566 7.11752C102.285 7.11752 102.045 7.01856 101.847 6.82065C101.649 6.62273 101.55 6.38315 101.55 6.1019ZM101.738 8.30502H103.394V16.3988H101.738V8.30502Z" fill="white"/>
<path d="M105.978 8.30502H107.033V5.2894H108.682V8.30502H111.174V9.95346H108.682V14.1019C108.682 14.279 108.749 14.4326 108.885 14.5628C109.025 14.6878 109.192 14.7503 109.385 14.7503H111.174V16.3988H109.361C108.934 16.3988 108.544 16.2972 108.189 16.0941C107.84 15.8858 107.559 15.6097 107.346 15.266C107.137 14.917 107.033 14.5316 107.033 14.1097V9.95346H105.978V8.30502Z" fill="white"/>
<path d="M115.047 8.30502L117.149 13.9144L119.297 8.30502H121.117L116.821 19.4456H115.016L116.274 16.1331L113.297 8.30502H115.047Z" fill="white"/>
<path d="M123.117 15.4925C123.117 15.2113 123.216 14.9717 123.414 14.7738C123.612 14.5759 123.852 14.4769 124.133 14.4769C124.42 14.4769 124.659 14.5759 124.852 14.7738C125.05 14.9665 125.149 15.2061 125.149 15.4925C125.149 15.779 125.05 16.0212 124.852 16.2191C124.659 16.4118 124.42 16.5081 124.133 16.5081C123.852 16.5081 123.612 16.4092 123.414 16.2113C123.216 16.0134 123.117 15.7738 123.117 15.4925Z" fill="#3C3C3C"/>
<path d="M126.007 9.98471C126.007 9.53159 126.168 9.14356 126.491 8.82065C126.814 8.49773 127.202 8.33627 127.655 8.33627H130.522C131.059 8.33627 131.548 8.46909 131.991 8.73471C132.434 8.99513 132.785 9.34409 133.046 9.78159C133.311 10.2191 133.444 10.7061 133.444 11.2425V13.5081C133.444 14.0446 133.311 14.5342 133.046 14.9769C132.785 15.4196 132.434 15.7738 131.991 16.0394C131.548 16.2998 131.059 16.43 130.522 16.43H128.592V14.7816H130.522C130.876 14.7816 131.176 14.6566 131.421 14.4066C131.671 14.1514 131.796 13.8467 131.796 13.4925V11.2581C131.796 10.904 131.671 10.6045 131.421 10.3597C131.176 10.1097 130.876 9.98471 130.522 9.98471H127.655V19.4456H126.007V9.98471Z" fill="#3C3C3C"/>
<path d="M134.419 10.6019C134.419 10.1852 134.523 9.80502 134.732 9.46127C134.945 9.11752 135.226 8.84409 135.575 8.64096C135.929 8.43784 136.32 8.33627 136.747 8.33627H141.219V9.9769H136.747C136.56 9.9769 136.398 10.042 136.263 10.1722C136.133 10.2972 136.067 10.4509 136.067 10.6331V16.43H134.419V10.6019Z" fill="#3C3C3C"/>
<path d="M141.91 11.2581C141.91 10.7217 142.04 10.2321 142.3 9.7894C142.566 9.34669 142.92 8.99513 143.363 8.73471C143.805 8.46909 144.295 8.33627 144.832 8.33627H146.597C147.134 8.33627 147.623 8.46909 148.066 8.73471C148.509 8.99513 148.86 9.34669 149.121 9.7894C149.386 10.2321 149.519 10.7217 149.519 11.2581V13.5081C149.519 14.0446 149.386 14.5342 149.121 14.9769C148.86 15.4196 148.509 15.7738 148.066 16.0394C147.623 16.2998 147.134 16.43 146.597 16.43H144.832C144.295 16.43 143.805 16.2998 143.363 16.0394C142.92 15.7738 142.566 15.4196 142.3 14.9769C142.04 14.5342 141.91 14.0446 141.91 13.5081V11.2581ZM143.558 13.4925C143.558 13.8467 143.683 14.1514 143.933 14.4066C144.183 14.6566 144.483 14.7816 144.832 14.7816H146.597C146.951 14.7816 147.251 14.6566 147.496 14.4066C147.746 14.1514 147.871 13.8467 147.871 13.4925V11.2738C147.871 10.9196 147.746 10.6175 147.496 10.3675C147.251 10.1123 146.951 9.98471 146.597 9.98471H144.832C144.483 9.98471 144.183 10.1123 143.933 10.3675C143.683 10.6175 143.558 10.9196 143.558 11.2738V13.4925Z" fill="#3C3C3C"/>
</svg>
