<?xml version="1.0" encoding="utf-8"?>
<svg xmlns="http://www.w3.org/2000/svg" viewBox="0 0 500 500">
  <rect x="14.781" y="87.486" width="66" height="46" rx="4" stroke="white" stroke-width="4"/>
  <rect x="0.281" y="94.486" width="70" height="50" rx="6" fill="white"/>
  <path d="M 128.733 129.986 L 110.413 129.986 C 109.944 129.986 109.436 129.934 108.889 129.83 C 108.356 129.713 107.822 129.537 107.288 129.302 C 106.767 129.068 106.266 128.769 105.784 128.404 C 105.302 128.026 104.872 127.577 104.495 127.056 C 104.13 126.523 103.837 125.911 103.616 125.22 C 103.395 124.517 103.284 123.73 103.284 122.857 L 103.284 109.107 C 103.284 108.638 103.336 108.137 103.44 107.603 C 103.557 107.056 103.733 106.523 103.968 106.002 C 104.202 105.468 104.508 104.96 104.885 104.478 C 105.263 103.996 105.712 103.573 106.233 103.209 C 106.767 102.831 107.379 102.532 108.069 102.31 C 108.759 102.089 109.54 101.978 110.413 101.978 L 128.733 101.978 L 128.733 107.056 L 110.413 107.056 C 109.749 107.056 109.241 107.232 108.889 107.584 C 108.538 107.935 108.362 108.456 108.362 109.146 L 108.362 122.857 C 108.362 123.508 108.538 124.016 108.889 124.381 C 109.254 124.732 109.762 124.908 110.413 124.908 L 128.733 124.908 L 128.733 129.986 Z M 151.331 113.951 L 139.905 113.951 C 139.215 113.951 138.694 114.127 138.343 114.478 C 137.991 114.817 137.815 115.318 137.815 115.982 L 137.815 129.986 L 132.737 129.986 L 132.737 115.982 C 132.737 115.11 132.848 114.328 133.069 113.638 C 133.29 112.948 133.583 112.343 133.948 111.822 C 134.326 111.288 134.755 110.839 135.237 110.474 C 135.719 110.097 136.22 109.791 136.741 109.556 C 137.275 109.322 137.809 109.153 138.343 109.049 C 138.889 108.931 139.397 108.873 139.866 108.873 L 151.331 108.873 L 151.331 113.951 Z M 177.327 115.865 C 177.327 116.568 177.203 117.33 176.956 118.15 C 176.708 118.957 176.305 119.713 175.745 120.416 C 175.198 121.106 174.475 121.685 173.577 122.154 C 172.691 122.623 171.611 122.857 170.335 122.857 L 161.175 122.857 L 161.175 118.033 L 170.335 118.033 C 171.025 118.033 171.559 117.825 171.936 117.408 C 172.314 116.978 172.503 116.451 172.503 115.826 C 172.503 115.162 172.288 114.641 171.858 114.263 C 171.441 113.886 170.934 113.697 170.335 113.697 L 161.175 113.697 C 160.484 113.697 159.951 113.912 159.573 114.342 C 159.195 114.758 159.007 115.279 159.007 115.904 L 159.007 122.994 C 159.007 123.671 159.215 124.198 159.632 124.576 C 160.061 124.953 160.589 125.142 161.214 125.142 L 170.335 125.142 L 170.335 129.986 L 161.175 129.986 C 160.471 129.986 159.71 129.862 158.889 129.615 C 158.082 129.368 157.327 128.97 156.624 128.424 C 155.934 127.864 155.354 127.141 154.885 126.256 C 154.417 125.357 154.182 124.27 154.182 122.994 L 154.182 115.865 C 154.182 115.162 154.306 114.407 154.553 113.599 C 154.801 112.779 155.198 112.024 155.745 111.334 C 156.305 110.631 157.027 110.045 157.913 109.576 C 158.811 109.107 159.898 108.873 161.175 108.873 L 170.335 108.873 C 171.038 108.873 171.793 108.996 172.6 109.244 C 173.421 109.491 174.176 109.895 174.866 110.455 C 175.569 111.002 176.155 111.724 176.624 112.623 C 177.093 113.508 177.327 114.589 177.327 115.865 Z M 203.909 122.857 C 203.909 123.73 203.798 124.517 203.577 125.22 C 203.356 125.911 203.063 126.523 202.698 127.056 C 202.333 127.577 201.91 128.026 201.428 128.404 C 200.947 128.769 200.439 129.068 199.905 129.302 C 199.384 129.537 198.85 129.713 198.303 129.83 C 197.77 129.934 197.262 129.986 196.78 129.986 L 187.62 129.986 C 186.747 129.986 185.966 129.875 185.276 129.654 C 184.586 129.433 183.974 129.14 183.44 128.775 C 182.919 128.398 182.47 127.968 182.093 127.486 C 181.728 127.004 181.428 126.503 181.194 125.982 C 180.96 125.448 180.784 124.914 180.667 124.381 C 180.563 123.834 180.51 123.326 180.51 122.857 L 180.51 115.982 C 180.51 114.68 180.745 113.58 181.214 112.681 C 181.695 111.77 182.288 111.034 182.991 110.474 C 183.707 109.901 184.482 109.491 185.315 109.244 C 186.148 108.996 186.917 108.873 187.62 108.873 L 196.78 108.873 L 196.78 113.951 L 187.659 113.951 C 186.982 113.951 186.468 114.127 186.116 114.478 C 185.764 114.817 185.589 115.318 185.589 115.982 L 185.589 122.818 C 185.589 123.508 185.758 124.029 186.096 124.381 C 186.448 124.732 186.956 124.908 187.62 124.908 L 196.78 124.908 C 197.47 124.908 197.984 124.732 198.323 124.381 C 198.662 124.029 198.831 123.521 198.831 122.857 L 198.831 99.947 L 203.909 99.947 L 203.909 122.857 Z M 213.909 104.537 L 208.831 104.537 L 208.831 99.947 L 213.909 99.947 L 213.909 104.537 Z M 213.909 129.986 L 208.831 129.986 L 208.831 108.873 L 213.909 108.873 L 213.909 129.986 Z M 237.991 113.951 L 229.124 113.951 L 229.124 129.986 L 223.987 129.986 L 223.987 113.951 L 217.385 113.951 L 217.385 108.873 L 223.987 108.873 L 223.987 101.978 L 229.124 101.978 L 229.124 108.873 L 237.991 108.873 L 237.991 113.951 Z M 264.612 132.017 C 264.612 132.89 264.501 133.671 264.28 134.361 C 264.059 135.064 263.766 135.676 263.401 136.197 C 263.037 136.731 262.613 137.18 262.132 137.545 C 261.65 137.922 261.142 138.228 260.608 138.463 C 260.087 138.697 259.56 138.866 259.026 138.97 C 258.492 139.088 257.984 139.146 257.503 139.146 L 248.343 139.146 L 248.343 134.068 L 257.503 134.068 C 258.18 134.068 258.688 133.892 259.026 133.541 C 259.365 133.189 259.534 132.681 259.534 132.017 L 259.534 108.873 L 264.612 108.873 L 264.612 132.017 Z M 257.503 129.986 L 248.343 129.986 C 247.613 129.986 246.832 129.862 245.999 129.615 C 245.178 129.368 244.41 128.964 243.694 128.404 C 242.978 127.831 242.385 127.095 241.917 126.197 C 241.448 125.286 241.214 124.172 241.214 122.857 L 241.214 108.873 L 246.292 108.873 L 246.292 122.857 C 246.292 123.521 246.468 124.029 246.819 124.381 C 247.171 124.732 247.691 124.908 248.382 124.908 L 257.503 124.908 L 257.503 129.986 Z" fill="white"/>
  <path d="M 273.694 127.427 C 273.694 127.779 273.622 128.111 273.479 128.424 C 273.349 128.723 273.167 128.99 272.932 129.224 C 272.711 129.446 272.444 129.621 272.132 129.752 C 271.832 129.882 271.513 129.947 271.175 129.947 C 270.823 129.947 270.491 129.882 270.178 129.752 C 269.879 129.621 269.612 129.446 269.378 129.224 C 269.156 128.99 268.981 128.723 268.85 128.424 C 268.72 128.111 268.655 127.779 268.655 127.427 C 268.655 127.089 268.72 126.77 268.85 126.47 C 268.981 126.158 269.156 125.891 269.378 125.67 C 269.612 125.435 269.879 125.253 270.178 125.123 C 270.491 124.98 270.823 124.908 271.175 124.908 C 271.513 124.908 271.832 124.98 272.132 125.123 C 272.444 125.253 272.711 125.435 272.932 125.67 C 273.167 125.891 273.349 126.158 273.479 126.47 C 273.622 126.77 273.694 127.089 273.694 127.427 Z M 277.737 99.947 L 277.737 129.986 L 277.737 99.947 Z" fill="#3C3C3C"/>
  <path d="M 36.001 133.986 L 32.401 133.986 L 32.401 114.786 L 23.961 114.786 L 23.961 111.666 L 44.441 111.666 L 44.441 114.786 L 36.001 114.786 L 36.001 133.986 Z M 23.961 105.426 L 44.441 105.426 L 44.441 108.546 L 23.961 108.546 L 23.961 105.426 Z" fill="#3C3C3C"/>
  <text style="fill: rgb(51, 51, 51); font-family: &quot;Arial&quot;, sans-serif; font-size: 28px; font-weight: 700; white-space: pre;" transform="matrix(1.322234, 0, 0, 1.11207, -91.199226, -12.138657)" x="276.281" y="129.018">UA</text>
</svg>